<svg xmlns="http://www.w3.org/2000/svg" viewBox="0 0 565.6 296.6"><defs><style>.cls-1{fill:#8ec089;}.cls-2{fill:#15326f;}.cls-14,.cls-3{fill:#f9f8f7;}.cls-4{fill:#318eee;}.cls-5{fill:#fff;}.cls-6{fill:#ff9a65;}.cls-15,.cls-7{fill:#1c4695;}.cls-8{opacity:0.1;}.cls-9{opacity:0.05;}.cls-10{opacity:0.4;}.cls-11{fill:#76c5f7;}.cls-12{fill:#fdfdfc;}.cls-13{fill:#f3f1ef;}.cls-14,.cls-15{fill-rule:evenodd;}.cls-16{fill:#2474de;}.cls-17{fill:#eb7489;}</style></defs><title>how-this-works</title><g id="Layer_6" data-name="Layer 6"><path class="cls-1" d="M512.07,131.61c0-16.06,7.53-31.35,19-58.13,11.43,26.78,19,42.07,19,58.13s-8.48,29.08-19,29.08S512.07,147.67,512.07,131.61Z"/><path class="cls-2" d="M531,161.43c-10.87,0-19.71-13.37-19.71-29.82,0-14.31,6-28.26,15.13-49.37q1.86-4.3,3.89-9l.69-1.62.69,1.62c1.35,3.17,2.65,6.18,3.89,9.06,9.11,21.1,15.12,35.05,15.12,49.36C550.73,148.06,541.89,161.43,531,161.43Zm0-86c-1.11,2.59-2.18,5.06-3.21,7.45-9,20.93-15,34.77-15,48.77,0,15.62,8.17,28.32,18.21,28.32s18.2-12.7,18.2-28.32c0-14-6-27.83-15-48.77Z"/><rect class="cls-2" x="528.29" y="145.75" width="16.66" height="1.5" transform="translate(53.58 422.36) rotate(-45)"/><rect class="cls-2" x="524.97" y="128.61" width="1.5" height="15.08" transform="translate(57.72 411.64) rotate(-45)"/><rect class="cls-2" x="530.14" y="122.94" width="1.5" height="59.04"/><polygon class="cls-2" points="372.02 41.07 370.52 41.07 370.52 4.26 349.79 4.26 349.79 26.18 348.29 26.18 348.29 2.76 372.02 2.76 372.02 41.07"/><rect class="cls-3" x="385.4" y="146.2" width="169.89" height="70.72" transform="translate(940.7 363.13) rotate(-180)"/><polygon class="cls-3" points="385.4 84.13 486.55 84.13 486.55 106.04 515.82 106.04 564.85 138.07 564.85 146.2 385.4 146.2 385.4 84.13"/><polyline class="cls-3" points="386.17 51.05 475.43 51.05 505.86 75.99 505.86 84.13 385.4 84.13"/><rect class="cls-3" x="385.4" y="75.99" width="120.46" height="8.13" transform="translate(891.26 160.12) rotate(-180)"/><line class="cls-3" x1="385.4" y1="138.07" x2="564.85" y2="138.07"/><polygon class="cls-4" points="392.89 216.92 385.4 216.92 385.4 61.3 392.89 66.26 392.89 216.92"/><polyline class="cls-3" points="237.22 216.92 237.22 57.44 311.31 7.29 385.4 57.44 385.4 216.92"/><polygon class="cls-2" points="386.15 216.92 384.65 216.92 384.65 57.84 311.31 8.2 237.97 57.84 237.97 216.92 236.47 216.92 236.47 57.04 311.31 6.38 311.73 6.67 386.15 57.04 386.15 216.92"/><polygon class="cls-5" points="358.17 115.16 352.19 115.16 318.53 58.64 324.5 58.64 358.17 115.16"/><polygon class="cls-5" points="340.42 115.16 327.63 115.16 293.96 58.64 306.76 58.64 340.42 115.16"/><rect class="cls-6" x="421.93" y="84.13" width="50.49" height="31.04" transform="translate(894.34 199.29) rotate(-180)"/><polygon class="cls-2" points="556.05 216.92 554.55 216.92 554.55 146.95 386.15 146.95 386.15 216.92 384.65 216.92 384.65 145.45 556.05 145.45 556.05 216.92"/><polyline class="cls-7" points="541.22 216.92 541.22 153.72 399.48 153.72 399.48 216.92"/><polygon class="cls-2" points="541.97 216.92 540.47 216.92 540.47 154.47 400.23 154.47 400.23 216.92 398.73 216.92 398.73 152.97 541.97 152.97 541.97 216.92"/><g class="cls-8"><polygon class="cls-2" points="472.42 84.13 421.93 84.13 421.93 104.7 472.42 91.06 472.42 84.13"/></g><g class="cls-9"><polygon class="cls-2" points="342.64 153.69 318.8 153.69 318.8 162.09 342.64 156.51 342.64 153.69"/></g><g class="cls-10"><polygon class="cls-2" points="541.22 153 400.09 153 400.09 216.92 541.22 175.37 541.22 153"/></g><rect class="cls-5" x="418.6" y="168.27" width="103.96" height="1.5"/><rect class="cls-5" x="418.6" y="184.57" width="104.1" height="1.5"/><rect class="cls-5" x="418.6" y="200.87" width="104.1" height="1.5"/><path class="cls-2" d="M565.6,147h-181V83.38H487.3v21.91h28.75l.18.13,49.37,32.24Zm-179.45-1.5h178v-7l-48.5-31.69H485.8V84.88H386.15Z"/><polygon class="cls-2" points="506.61 84.88 385.4 84.88 385.4 83.38 505.11 83.38 505.11 76.35 475.16 51.8 386.17 51.8 386.17 50.3 475.7 50.3 506.61 75.64 506.61 84.88"/><path class="cls-2" d="M506.61,84.88h-122V75.24h122Zm-120.46-1.5h119V76.74h-119Z"/><polygon class="cls-2" points="273.29 216.92 271.79 216.92 271.79 146.95 265.16 146.95 265.16 216.92 263.66 216.92 263.66 145.45 273.29 145.45 273.29 216.92"/><polygon class="cls-2" points="358.92 216.92 357.42 216.92 357.42 146.95 350.78 146.95 350.78 216.92 349.28 216.92 349.28 145.45 358.92 145.45 358.92 216.92"/><rect class="cls-2" x="385.4" y="137.32" width="179.45" height="1.5"/><polygon class="cls-3" points="230.33 55.16 311.31 0.9 392.3 55.16 392.3 65.58 311.31 11.32 230.33 65.58 230.33 55.16"/><path class="cls-2" d="M393.05,67,311.31,12.23,229.58,67V54.76l.33-.22L311.31,0l81.74,54.76ZM311.31,10.42l80.24,53.76V55.56L311.31,1.81,231.08,55.56v8.62Z"/><path class="cls-2" d="M358.91,115.91H326.18v-58h32.73Zm-31.23-1.5h29.73v-55H327.68Z"/><path class="cls-2" d="M327.68,115.91H295v-58h32.73Zm-31.23-1.5h29.73v-55H296.45Z"/><path class="cls-2" d="M296.45,115.91H263.71v-58h32.74Zm-31.24-1.5H295v-55H265.21Z"/><rect class="cls-2" x="264.46" y="98.9" width="93.7" height="1.5"/><polygon class="cls-2" points="350.78 216.92 349.28 216.92 349.28 146.95 312.06 146.95 312.06 216.92 310.56 216.92 310.56 145.45 350.78 145.45 350.78 216.92"/><polygon class="cls-2" points="312.06 216.92 310.56 216.92 310.56 146.95 273.34 146.95 273.34 216.92 271.84 216.92 271.84 145.45 312.06 145.45 312.06 216.92"/><path class="cls-2" d="M343.3,178.22H318.05V153H343.3Zm-23.75-1.5H341.8V154.47H319.55Z"/><rect class="cls-11" x="280.08" y="153.72" width="23.75" height="23.75" transform="translate(583.91 331.19) rotate(-180)"/><path class="cls-2" d="M304.58,178.22H279.33V153h25.25Zm-23.75-1.5h22.25V154.47H280.83Z"/><rect class="cls-2" x="303.08" y="185.06" width="1.5" height="13.37"/><rect class="cls-2" x="318.05" y="185.06" width="1.5" height="13.37"/><polygon class="cls-2" points="457.09 121.27 415.87 121.27 415.87 100.93 417.37 100.93 417.37 119.77 457.09 119.77 457.09 121.27"/><g class="cls-8"><polygon class="cls-2" points="303.88 153.69 280.03 153.69 280.03 162.09 303.88 156.51 303.88 153.69"/></g><g class="cls-9"><polygon class="cls-2" points="358.17 58.64 264.49 58.64 264.49 83.05 358.17 66.86 358.17 58.64"/></g><polygon class="cls-3" points="202.89 100.03 247.64 100.03 276.21 127.5 276.21 199.28 247.64 199.28 219.06 199.28 174.31 199.28 174.31 127.5 202.89 100.03"/><polygon class="cls-12" points="276.21 127.5 247.64 100.03 219.06 127.5 219.06 173.19 276.21 173.19 276.21 127.5"/><polygon class="cls-7" points="174.31 127.5 219.06 127.5 247.64 100.03 202.89 100.03 174.31 127.5"/><polygon class="cls-2" points="219.81 172.69 218.31 172.69 218.31 127.18 247.12 99.49 248.16 100.57 219.81 127.82 219.81 172.69"/><path class="cls-2" d="M277,200H173.56V127.18l29-27.9h45.35l29,27.9Zm-101.9-1.5h100.4V127.82l-28.12-27H203.19l-28.13,27Z"/><rect class="cls-5" x="174.86" y="149.03" width="26.03" height="8.86" transform="translate(341.33 -34.42) rotate(90)"/><path class="cls-2" d="M193.06,167.22H182.7V139.69h10.36Zm-8.86-1.5h7.36V141.19H184.2Z"/><rect class="cls-5" x="201.07" y="140.44" width="8.86" height="8.86" transform="translate(350.37 -60.63) rotate(90)"/><path class="cls-2" d="M210.68,150.05H200.32V139.69h10.36Zm-8.86-1.5h7.36v-7.36h-7.36Z"/><rect class="cls-11" x="201.07" y="157.61" width="8.86" height="8.86" transform="translate(367.54 -43.46) rotate(90)"/><path class="cls-2" d="M210.68,167.22H200.32V156.86h10.36Zm-8.86-1.5h7.36v-7.36h-7.36Z"/><path class="cls-1" d="M343,149.5H258.71c-14.55,0-28.39,5.05-37.94,13.85l-1.9,1.75c-9.26,8.52-22.66,13.41-36.75,13.41-28.42,0-55.69,9-76,24.92l-15.34,13,252.13.51Z"/><path class="cls-13" d="M127,212.47a1,1,0,1,0,1,1A1,1,0,0,0,127,212.47Zm3.06-3.06a1,1,0,1,0,1-1A1,1,0,0,0,130.07,209.41Zm0,4.08a1,1,0,1,0,1-1A1,1,0,0,0,130.07,213.49Zm4.08-4.08a1,1,0,1,0,1-1A1,1,0,0,0,134.15,209.41Zm0,4.08a1,1,0,1,0,1-1A1,1,0,0,0,134.15,213.49Zm4.07-8.16a1,1,0,1,0,1-1A1,1,0,0,0,138.22,205.33Zm0,4.08a1,1,0,1,0,1-1A1,1,0,0,0,138.22,209.41Zm0,4.08a1,1,0,1,0,1-1A1,1,0,0,0,138.22,213.49Zm4.08-12.23a1,1,0,1,0,1-1A1,1,0,0,0,142.3,201.26Zm0,4.07a1,1,0,1,0,1-1A1,1,0,0,0,142.3,205.33Zm0,4.08a1,1,0,1,0,1-1A1,1,0,0,0,142.3,209.41Zm0,4.08a1,1,0,1,0,1-1A1,1,0,0,0,142.3,213.49Zm4.08-12.23a1,1,0,1,0,1-1A1,1,0,0,0,146.38,201.26Zm0,4.07a1,1,0,1,0,1-1A1,1,0,0,0,146.38,205.33Zm0,4.08a1,1,0,1,0,1-1A1,1,0,0,0,146.38,209.41Zm0,4.08a1,1,0,1,0,1-1A1,1,0,0,0,146.38,213.49Zm4.07-16.31a1,1,0,1,0,1-1A1,1,0,0,0,150.45,197.18Zm0,4.08a1,1,0,1,0,1-1A1,1,0,0,0,150.45,201.26Zm0,4.07a1,1,0,1,0,1-1A1,1,0,0,0,150.45,205.33Zm0,4.08a1,1,0,1,0,1-1A1,1,0,0,0,150.45,209.41Zm0,4.08a1,1,0,1,0,1-1A1,1,0,0,0,150.45,213.49Zm4.08-16.31a1,1,0,1,0,1-1A1,1,0,0,0,154.53,197.18Zm0,4.08a1,1,0,1,0,1-1A1,1,0,0,0,154.53,201.26Zm0,4.07a1,1,0,1,0,1-1A1,1,0,0,0,154.53,205.33Zm0,4.08a1,1,0,1,0,1-1A1,1,0,0,0,154.53,209.41Zm0,4.08a1,1,0,1,0,1-1A1,1,0,0,0,154.53,213.49Zm4.07-16.31a1,1,0,1,0,1-1A1,1,0,0,0,158.6,197.18Zm0,4.08a1,1,0,1,0,1-1A1,1,0,0,0,158.6,201.26Zm0,4.07a1,1,0,1,0,1-1A1,1,0,0,0,158.6,205.33Zm0,4.08a1,1,0,1,0,1-1A1,1,0,0,0,158.6,209.41Zm0,4.08a1,1,0,1,0,2,0,1,1,0,1,0-2,0Zm4.08-20.38a1,1,0,1,0,1-1A1,1,0,0,0,162.68,193.11Zm0,4.07a1,1,0,1,0,1-1A1,1,0,0,0,162.68,197.18Zm0,4.08a1,1,0,1,0,1-1A1,1,0,0,0,162.68,201.26Zm0,4.07a1,1,0,1,0,1-1A1,1,0,0,0,162.68,205.33Zm0,4.08a1,1,0,1,0,1-1A1,1,0,0,0,162.68,209.41Zm0,4.08a1,1,0,1,0,1-1A1,1,0,0,0,162.68,213.49Zm4.08-20.38a1,1,0,1,0,1-1A1,1,0,0,0,166.76,193.11Zm0,4.07a1,1,0,1,0,1-1A1,1,0,0,0,166.76,197.18Zm0,4.08a1,1,0,1,0,1-1A1,1,0,0,0,166.76,201.26Zm0,4.07a1,1,0,1,0,1-1A1,1,0,0,0,166.76,205.33Zm0,4.08a1,1,0,1,0,1-1A1,1,0,0,0,166.76,209.41Zm0,4.08a1,1,0,1,0,1-1A1,1,0,0,0,166.76,213.49Zm5.09-21.4a1,1,0,1,0,1,1A1,1,0,0,0,171.85,192.09Zm-1,5.09a1,1,0,1,0,1-1A1,1,0,0,0,170.83,197.18Zm0,4.08a1,1,0,1,0,1-1A1,1,0,0,0,170.83,201.26Zm0,4.07a1,1,0,1,0,1-1A1,1,0,0,0,170.83,205.33Zm0,4.08a1,1,0,1,0,1-1A1,1,0,0,0,170.83,209.41Zm0,4.08a1,1,0,1,0,1-1A1,1,0,0,0,170.83,213.49Zm4.08-20.38a1,1,0,1,0,1-1A1,1,0,0,0,174.91,193.11Zm0,4.07a1,1,0,1,0,1-1A1,1,0,0,0,174.91,197.18Zm0,4.08a1,1,0,1,0,1-1A1,1,0,0,0,174.91,201.26Zm0,4.07a1,1,0,1,0,1-1A1,1,0,0,0,174.91,205.33Zm0,4.08a1,1,0,1,0,1-1A1,1,0,0,0,174.91,209.41Zm0,4.08a1,1,0,1,0,1-1A1,1,0,0,0,174.91,213.49ZM179,193.11a1,1,0,1,0,1-1A1,1,0,0,0,179,193.11Zm0,4.07a1,1,0,1,0,1-1A1,1,0,0,0,179,197.18Zm0,4.08a1,1,0,1,0,1-1A1,1,0,0,0,179,201.26Zm0,4.07a1,1,0,1,0,1-1A1,1,0,0,0,179,205.33Zm0,4.08a1,1,0,1,0,1-1A1,1,0,0,0,179,209.41Zm0,4.08a1,1,0,1,0,2,0,1,1,0,0,0-2,0Zm4.08-20.38a1,1,0,1,0,1-1A1,1,0,0,0,183.06,193.11Zm0,4.07a1,1,0,1,0,1-1A1,1,0,0,0,183.06,197.18Zm0,4.08a1,1,0,1,0,1-1A1,1,0,0,0,183.06,201.26Zm0,4.07a1,1,0,1,0,1-1A1,1,0,0,0,183.06,205.33Zm0,4.08a1,1,0,1,0,1-1A1,1,0,0,0,183.06,209.41Zm0,4.08a1,1,0,1,0,1-1A1,1,0,0,0,183.06,213.49Zm4.08-20.38a1,1,0,1,0,1-1A1,1,0,0,0,187.14,193.11Zm0,4.07a1,1,0,1,0,1-1A1,1,0,0,0,187.14,197.18Zm0,4.08a1,1,0,1,0,1-1A1,1,0,0,0,187.14,201.26Zm0,4.07a1,1,0,1,0,1-1A1,1,0,0,0,187.14,205.33Zm0,4.08a1,1,0,1,0,1-1A1,1,0,0,0,187.14,209.41Zm0,4.08a1,1,0,1,0,1-1A1,1,0,0,0,187.14,213.49Zm4.07-20.38a1,1,0,1,0,1-1A1,1,0,0,0,191.21,193.11Zm0,4.07a1,1,0,1,0,1-1A1,1,0,0,0,191.21,197.18Zm0,4.08a1,1,0,1,0,1-1A1,1,0,0,0,191.21,201.26Zm0,4.07a1,1,0,1,0,1-1A1,1,0,0,0,191.21,205.33Zm0,4.08a1,1,0,1,0,1-1A1,1,0,0,0,191.21,209.41Zm0,4.08a1,1,0,1,0,2,0,1,1,0,1,0-2,0Zm4.08-20.38a1,1,0,1,0,1-1A1,1,0,0,0,195.29,193.11Zm0,4.07a1,1,0,1,0,1-1A1,1,0,0,0,195.29,197.18Zm0,4.08a1,1,0,1,0,1-1A1,1,0,0,0,195.29,201.26Zm0,4.07a1,1,0,1,0,1-1A1,1,0,0,0,195.29,205.33Zm4.08-12.22a1,1,0,1,0,1-1A1,1,0,0,0,199.37,193.11Zm0,4.07a1,1,0,1,0,1-1A1,1,0,0,0,199.37,197.18Zm0,4.08a1,1,0,1,0,1-1A1,1,0,0,0,199.37,201.26Zm0,4.07a1,1,0,1,0,1-1A1,1,0,0,0,199.37,205.33Zm4.07-12.22a1,1,0,1,0,1-1A1,1,0,0,0,203.44,193.11Zm0,4.07a1,1,0,1,0,1-1A1,1,0,0,0,203.44,197.18Z"/><polygon class="cls-2" points="372.02 41.07 370.52 41.07 370.52 4.26 349.79 4.26 349.79 26.18 348.29 26.18 348.29 2.76 372.02 2.76 372.02 41.07"/><rect class="cls-3" x="385.4" y="146.2" width="169.89" height="70.72" transform="translate(940.7 363.13) rotate(-180)"/><polygon class="cls-3" points="385.4 84.13 486.55 84.13 486.55 106.04 515.82 106.04 564.85 138.07 564.85 146.2 385.4 146.2 385.4 84.13"/><polyline class="cls-3" points="386.17 51.05 475.43 51.05 505.86 75.99 505.86 84.13 385.4 84.13"/><rect class="cls-3" x="385.4" y="75.99" width="120.46" height="8.13" transform="translate(891.26 160.12) rotate(-180)"/><line class="cls-3" x1="385.4" y1="138.07" x2="564.85" y2="138.07"/><polygon class="cls-4" points="392.89 216.92 385.4 216.92 385.4 61.3 392.89 66.26 392.89 216.92"/><polyline class="cls-3" points="237.22 216.92 237.22 57.44 311.31 7.29 385.4 57.44 385.4 216.92"/><polygon class="cls-2" points="386.15 216.92 384.65 216.92 384.65 57.84 311.31 8.2 237.97 57.84 237.97 216.92 236.47 216.92 236.47 57.04 311.31 6.38 311.73 6.67 386.15 57.04 386.15 216.92"/><polygon class="cls-5" points="358.17 115.16 352.19 115.16 318.53 58.64 324.5 58.64 358.17 115.16"/><polygon class="cls-5" points="340.42 115.16 327.63 115.16 293.96 58.64 306.76 58.64 340.42 115.16"/><rect class="cls-6" x="421.93" y="84.13" width="50.49" height="31.04" transform="translate(894.34 199.29) rotate(-180)"/><polygon class="cls-2" points="556.05 216.92 554.55 216.92 554.55 146.95 386.15 146.95 386.15 216.92 384.65 216.92 384.65 145.45 556.05 145.45 556.05 216.92"/><polyline class="cls-7" points="541.22 216.92 541.22 153.72 399.48 153.72 399.48 216.92"/><polygon class="cls-2" points="541.97 216.92 540.47 216.92 540.47 154.47 400.23 154.47 400.23 216.92 398.73 216.92 398.73 152.97 541.97 152.97 541.97 216.92"/><g class="cls-8"><polygon class="cls-2" points="472.42 84.13 421.93 84.13 421.93 104.7 472.42 91.06 472.42 84.13"/></g><g class="cls-9"><polygon class="cls-2" points="342.64 153.69 318.8 153.69 318.8 162.09 342.64 156.51 342.64 153.69"/></g><g class="cls-10"><polygon class="cls-2" points="541.22 153 400.09 153 400.09 216.92 541.22 175.37 541.22 153"/></g><rect class="cls-5" x="418.6" y="168.27" width="103.96" height="1.5"/><rect class="cls-5" x="418.6" y="184.57" width="104.1" height="1.5"/><rect class="cls-5" x="418.6" y="200.87" width="104.1" height="1.5"/><path class="cls-2" d="M565.6,147h-181V83.38H487.3v21.91h28.75l.18.13,49.37,32.24Zm-179.45-1.5h178v-7l-48.5-31.69H485.8V84.88H386.15Z"/><polygon class="cls-2" points="506.61 84.88 385.4 84.88 385.4 83.38 505.11 83.38 505.11 76.35 475.16 51.8 386.17 51.8 386.17 50.3 475.7 50.3 506.61 75.64 506.61 84.88"/><path class="cls-2" d="M506.61,84.88h-122V75.24h122Zm-120.46-1.5h119V76.74h-119Z"/><polygon class="cls-2" points="273.29 216.92 271.79 216.92 271.79 146.95 265.16 146.95 265.16 216.92 263.66 216.92 263.66 145.45 273.29 145.45 273.29 216.92"/><polygon class="cls-2" points="358.92 216.92 357.42 216.92 357.42 146.95 350.78 146.95 350.78 216.92 349.28 216.92 349.28 145.45 358.92 145.45 358.92 216.92"/><rect class="cls-2" x="385.4" y="137.32" width="179.45" height="1.5"/><polygon class="cls-3" points="230.33 55.16 311.31 0.9 392.3 55.16 392.3 65.58 311.31 11.32 230.33 65.58 230.33 55.16"/><path class="cls-2" d="M393.05,67,311.31,12.23,229.58,67V54.76l.33-.22L311.31,0l81.74,54.76ZM311.31,10.42l80.24,53.76V55.56L311.31,1.81,231.08,55.56v8.62Z"/><path class="cls-2" d="M358.91,115.91H326.18v-58h32.73Zm-31.23-1.5h29.73v-55H327.68Z"/><path class="cls-2" d="M327.68,115.91H295v-58h32.73Zm-31.23-1.5h29.73v-55H296.45Z"/><path class="cls-2" d="M296.45,115.91H263.71v-58h32.74Zm-31.24-1.5H295v-55H265.21Z"/><rect class="cls-2" x="264.46" y="98.9" width="93.7" height="1.5"/><polygon class="cls-2" points="350.78 216.92 349.28 216.92 349.28 146.95 312.06 146.95 312.06 216.92 310.56 216.92 310.56 145.45 350.78 145.45 350.78 216.92"/><polygon class="cls-2" points="312.06 216.92 310.56 216.92 310.56 146.95 273.34 146.95 273.34 216.92 271.84 216.92 271.84 145.45 312.06 145.45 312.06 216.92"/><path class="cls-2" d="M343.3,178.22H318.05V153H343.3Zm-23.75-1.5H341.8V154.47H319.55Z"/><rect class="cls-11" x="280.08" y="153.72" width="23.75" height="23.75" transform="translate(583.91 331.19) rotate(-180)"/><path class="cls-2" d="M304.58,178.22H279.33V153h25.25Zm-23.75-1.5h22.25V154.47H280.83Z"/><rect class="cls-2" x="303.08" y="185.06" width="1.5" height="13.37"/><rect class="cls-2" x="318.05" y="185.06" width="1.5" height="13.37"/><polygon class="cls-2" points="457.09 121.27 415.87 121.27 415.87 100.93 417.37 100.93 417.37 119.77 457.09 119.77 457.09 121.27"/><g class="cls-8"><polygon class="cls-2" points="303.88 153.69 280.03 153.69 280.03 162.09 303.88 156.51 303.88 153.69"/></g><g class="cls-9"><polygon class="cls-2" points="358.17 58.64 264.49 58.64 264.49 83.05 358.17 66.86 358.17 58.64"/></g><path class="cls-1" d="M206.58,166.55c0-16.06,7.53-31.35,19-58.13,11.42,26.78,19,42.07,19,58.13s-8.48,29.08-19,29.08S206.58,182.61,206.58,166.55Z"/><path class="cls-2" d="M225.54,196.38c-10.87,0-19.71-13.38-19.71-29.83,0-14.31,6-28.26,15.13-49.37l3.89-9.05.69-1.62.69,1.62c1.35,3.17,2.65,6.18,3.89,9.06,9.11,21.11,15.12,35.05,15.12,49.36C245.24,183,236.4,196.38,225.54,196.38Zm0-86q-1.66,3.89-3.21,7.45c-9,20.94-15,34.77-15,48.77,0,15.62,8.17,28.33,18.21,28.33s18.2-12.71,18.2-28.33c0-14-6-27.83-15-48.77C227.71,115.4,226.65,112.92,225.54,110.33Z"/><rect class="cls-2" x="222.8" y="180.69" width="16.66" height="1.5" transform="translate(-60.6 216.58) rotate(-45)"/><rect class="cls-2" x="219.47" y="163.55" width="1.5" height="15.08" transform="translate(-56.48 205.85) rotate(-45)"/><rect class="cls-2" x="224.65" y="157.89" width="1.5" height="59.04"/><path class="cls-1" d="M206.58,166.55c0-16.06,7.53-31.35,19-58.13,11.42,26.78,19,42.07,19,58.13s-8.48,29.08-19,29.08S206.58,182.61,206.58,166.55Z"/><path class="cls-2" d="M225.54,196.38c-10.87,0-19.71-13.38-19.71-29.83,0-14.31,6-28.26,15.13-49.37l3.89-9.05.69-1.62.69,1.62c1.35,3.17,2.65,6.18,3.89,9.06,9.11,21.11,15.12,35.05,15.12,49.36C245.24,183,236.4,196.38,225.54,196.38Zm0-86q-1.66,3.89-3.21,7.45c-9,20.94-15,34.77-15,48.77,0,15.62,8.17,28.33,18.21,28.33s18.2-12.71,18.2-28.33c0-14-6-27.83-15-48.77C227.71,115.4,226.65,112.92,225.54,110.33Z"/><rect class="cls-2" x="222.8" y="180.69" width="16.66" height="1.5" transform="translate(-60.6 216.58) rotate(-45)"/><rect class="cls-2" x="219.47" y="163.55" width="1.5" height="15.08" transform="translate(-56.48 205.85) rotate(-45)"/><rect class="cls-2" x="224.65" y="157.89" width="1.5" height="59.04"/><rect class="cls-2" x="205.83" y="216.17" width="359.02" height="1.5"/><rect class="cls-2" x="285.1" y="236.93" width="237.6" height="1.5"/><rect class="cls-2" x="72.84" y="295.1" width="190.51" height="1.5"/><polygon class="cls-2" points="90.22 255.3 84.95 263.27 81.84 261.88 84.34 254.55 90.22 255.3"/><polygon class="cls-2" points="119.32 255.3 121.56 262.75 117.09 264.18 114.97 257.36 119.32 255.3"/><path class="cls-3" d="M96.81,271.62H91l-14.21-4.05,4.47-6.37,6.12,1.59C85.93,267.13,97.53,268.86,96.81,271.62Z"/><path class="cls-2" d="M97.39,272.37l-6.58,0L75.59,268,81,260.34l7.41,1.92-.25.77c-.57,1.67,1.81,3,5,4.57,2.63,1.29,4.9,2.4,4.42,4.21Zm-6.27-1.5h4.66a16.94,16.94,0,0,0-3.34-1.93c-2.75-1.35-6.12-3-5.91-5.61l-4.94-1.27L78,267.14Z"/><path class="cls-3" d="M134.62,266.41l-19.42,5.22.25-8.13,6.26-2.13C122.91,266,133.82,261.37,134.62,266.41Z"/><path class="cls-2" d="M114.42,272.61l.29-9.65,7.52-2.56.21.78c.41,1.6,2.52,1.76,5.7,1.81s6.72.11,7.22,3.3l.11.67Zm1.76-8.56-.2,6.59,17.69-4.75c-.65-1.22-2.61-1.35-5.55-1.4-2.71-.05-5.74-.1-6.85-2.18Z"/><polyline class="cls-3" points="108.57 197.64 120.31 256.82 114.97 259.6 96.84 207.21"/><polygon class="cls-2" points="114.55 260.67 96.13 207.46 97.55 206.97 115.39 258.54 119.46 256.42 107.84 197.78 109.31 197.49 121.15 257.23 114.55 260.67"/><path class="cls-3" d="M89.48,259l-7.58-2.2,11-25.4L90.25,208.8a12.75,12.75,0,0,1,1-6.57l3.35-7.62,14,3-.25,10.24-6.82,28.25Z"/><path class="cls-2" d="M89.86,259.92l-9-2.62,11.25-26L89.5,208.88a13.48,13.48,0,0,1,1-6.95l3.59-8.18,15.2,3.29-.29,11-6.89,28.42Zm-6.94-3.58,6.18,1.79,11.69-22.27,6.78-28.07.24-9.55L95,195.47l-3.1,7.07a12,12,0,0,0-.93,6.17l2.67,22.82Z"/><g id="Group-55"><path class="cls-14" d="M98.56,151.24A39.3,39.3,0,0,1,96,164.48a28.13,28.13,0,0,1,5.34,3c3.71,3.08,3.05,1.68,2.8.66-.4-1.67-1.5-3.86,1.36-10.66a17.24,17.24,0,0,0,.59-3.48Q105.38,149.06,98.56,151.24Z"/><path class="cls-2" d="M104.14,170.14c-.63,0-1.52-.59-3.3-2.06a28.19,28.19,0,0,0-5.18-2.93l-.62-.29.25-.65a39,39,0,0,0,2.52-13l0-.53.5-.17c2.93-.93,5.07-.93,6.54,0a4.54,4.54,0,0,1,1.94,3.41,16.14,16.14,0,0,1-.64,3.88c-2.49,5.91-1.89,8.08-1.45,9.67,0,.18.09.34.13.51l.07.26c.15.56.36,1.33-.27,1.74A.93.93,0,0,1,104.14,170.14Zm-7.21-6a25.69,25.69,0,0,1,4.86,2.82c.7.57,1.2,1,1.55,1.21,0-.09,0-.17-.07-.27-.47-1.69-1.17-4.26,1.51-10.65a18.68,18.68,0,0,0,.55-3.1,3.07,3.07,0,0,0-1.26-2.33c-1-.62-2.59-.61-4.78,0A40.38,40.38,0,0,1,96.93,164.1Z"/><g id="Group-10"><path class="cls-14" d="M107.89,161.49c3.1.27,3.06-3.86,3.85-6.51,1.15,0,1.69-.21,1.61-.61-.4-2-1.18-3.35-1-5.06.42-4.75-1.39-8.78-6.14-9.2s-8.32,3.15-8.74,7.9S102,161,107.89,161.49Z"/><path class="cls-2" d="M108.2,162.25l-.38,0h0C105,162,102,160,99.69,156.77c-2.08-2.91-3.23-6.29-3-8.82a9.83,9.83,0,0,1,3-6.38,8.44,8.44,0,0,1,6.57-2.21,6.92,6.92,0,0,1,5.59,3.34,11.09,11.09,0,0,1,1.24,6.68,7.25,7.25,0,0,0,.48,2.78,21,21,0,0,1,.55,2.07,1.09,1.09,0,0,1-.22.89,2.08,2.08,0,0,1-1.55.59c-.1.41-.19.85-.29,1.31C111.55,159.36,111,162.25,108.2,162.25Zm-2.76-21.42a6.88,6.88,0,0,0-4.75,1.84,8.31,8.31,0,0,0-2.51,5.41c-.19,2.16.88,5.23,2.73,7.82,2,2.86,4.61,4.62,7,4.84h0c1.66.14,2.08-1.43,2.61-4,.14-.66.28-1.34.46-2l.16-.53h.56a4.27,4.27,0,0,0,.8-.06c-.13-.56-.28-1.07-.43-1.57a8.31,8.31,0,0,1-.54-3.35,9.7,9.7,0,0,0-1-5.78,5.4,5.4,0,0,0-4.44-2.61Q105.77,140.83,105.44,140.83Z"/><path class="cls-15" d="M98.06,157.31l5-11.25c4.14.11,7.12-.13,8.95-.7,4.17-1.3,4.44-5.12,3.21-6.68s-2.86-2.17-7.93-.45-11,.82-11.61,4.58Q95,147.12,98.06,157.31Z"/><ellipse class="cls-3" cx="99.38" cy="151.7" rx="1.98" ry="2.21"/></g><g class="cls-8"><path class="cls-2" d="M98.48,155.18a5,5,0,0,1-.1,2.81,21,21,0,0,0,5.16,5.91,11,11,0,0,1,.7-3.34C105.28,158.21,98.48,155.18,98.48,155.18Z"/></g><g id="Path-145"><path class="cls-15" d="M101.53,148l1.59,4.6a2.9,2.9,0,0,0,2.53,1.95l6.09.45.09,2.73a4.69,4.69,0,0,1-4.53,4.84h-.24a5.8,5.8,0,0,1-5.64-5l-1.18-8.06Z"/></g></g><path class="cls-6" d="M95.51,164.71,90,166.3A8.54,8.54,0,0,0,83.94,173l-1.83,9.74v14.65l10.47,1.08Z"/><path class="cls-2" d="M93.26,199.27,81.36,198V182.58l1.83-9.75a9.27,9.27,0,0,1,6.6-7.25l6.55-1.89Zm-10.4-2.58,9,.93,2.77-31.88L90.21,167a7.78,7.78,0,0,0-5.54,6.08l-1.81,9.68Z"/><path class="cls-16" d="M111,204.1c-6.89-2.84-15.5,7.76-23.08,1.43l3-29.85a11.46,11.46,0,0,1,.82-3.27L96,162.17c1.43,2.54,6.44,4.59,8.65,3.59l3.46,6.07.63,5.58.23,16.68Z"/><path class="cls-2" d="M88.65,198.74l-.78,0,.12-1.49c5,.38,10.49-4.07,13.46-10.83,2.37-5.38,3.17-12.75-1.68-17.31l-4.84-3.42-2.94.85-.42-1.45,3.64-1,5.54,3.92c5.47,5.1,4.66,13.18,2.08,19.05S94.87,198.74,88.65,198.74Z"/><path class="cls-3" d="M94,174l-6.07,10.61c4.88,9.52,7.25,15.47,11.92,24.6l4.27-2.68-7.69-19.75,2-4.92a5.73,5.73,0,0,0-4.1-7.78Z"/><path class="cls-2" d="M99.55,210.26l-.37-.73c-2.31-4.51-4.1-8.33-5.82-12s-3.63-7.76-6.1-12.57l-.18-.36,6.54-11.43.89.18a6.48,6.48,0,0,1,4.63,8.8l-1.91,4.65,7.82,20ZM88.78,184.61c2.39,4.67,4.19,8.53,5.94,12.26,1.62,3.48,3.3,7.07,5.42,11.25l3.06-1.92-7.58-19.44,2.13-5.21a5,5,0,0,0-3.37-6.72Z"/><path class="cls-16" d="M93.68,169.08l-4,8.37c2.21,6.07,3.82,6.8,9.69,7.14l1.22-7.08"/><path class="cls-2" d="M100.05,185.37l-.67,0c-6.18-.36-8-1.29-10.35-7.64l-.11-.29L93,168.76l1.36.64-3.81,8.08c2,5.27,3.26,6,8.25,6.32l1.11-6.42,1.47.25Z"/><line class="cls-11" x1="105.68" y1="205.51" x2="96.84" y2="211.19"/><rect class="cls-2" x="96.01" y="207.6" width="10.5" height="1.5" transform="translate(-96.55 87.79) rotate(-32.72)"/><polygon class="cls-6" points="77.58 196.84 84.06 197.64 82.11 182.72 77.58 184.59 77.58 196.84"/><path class="cls-2" d="M84.93,198.5l-8.1-1V184.08l5.9-2.43Zm-6.6-2.33,4.86.61-1.7-13-3.16,1.31Z"/><path class="cls-2" d="M146.93,143.32s5.82-5.42,11-1.88c23.79,16.33-5.76,32-4.17,35.14s-7.81-6-6.68,0c1.32,7,2.08,1.62,3.67,5.85,5.55,14.76-14.64,35.35-12.67,10.18-26.79-1.15-5.54-13.38-4.25-16,.73-1.5-6.49-2.26-5.84-9.09,1.26-13.27,15-13.56,14.23-20.18C144.16,145.84,147.66,144.44,146.93,143.32Z"/><path class="cls-3" d="M148.12,159.51c.78,1.61-2,7.74-3.39,8.09,0,0,4.32,3.67,6.61,3.92,1.85.21.75-4.34,2-7.16C154.25,162.24,148.12,159.51,148.12,159.51Z"/><path class="cls-2" d="M151.46,172.28h-.2c-2.45-.27-6.55-3.71-7-4.1l-1.12-.95,1.42-.35c.29-.1,1.26-1.27,2.16-3.49.82-2,.89-3.23.74-3.54l-.91-1.85,1.89.84c1.13.5,6.75,3.16,5.58,5.83a12.09,12.09,0,0,0-.66,3.82c-.1,1.58-.18,2.83-.92,3.46A1.53,1.53,0,0,1,151.46,172.28Zm-5.5-4.65c1.48,1.17,4,3,5.46,3.15.29-.2.38-1.52.44-2.39a13.08,13.08,0,0,1,.77-4.33c.31-.69-1.52-2.16-3.65-3.29a14.47,14.47,0,0,1-1.27,4.07A11.42,11.42,0,0,1,146,167.63Z"/><g class="cls-8"><path class="cls-2" d="M148.12,159.51a4.54,4.54,0,0,1-.09,2.54,19.08,19.08,0,0,0,4.65,5.33,9.91,9.91,0,0,1,.64-3C154.25,162.24,148.12,159.51,148.12,159.51Z"/></g><path class="cls-3" d="M156.27,165.19c2-.72,4.24-4.23,4.53-4.83s-.28-3.05,0-3.5,3.66-7.19-2.95-11.2a8.22,8.22,0,0,0-12.48,8.85C146.54,159.58,154.28,165.9,156.27,165.19Z"/><path class="cls-2" d="M155.91,166a5.05,5.05,0,0,1-2.28-.75c-3.06-1.67-8-6.39-9-10.56a8.91,8.91,0,0,1,3.44-9.4,9,9,0,0,1,10.16-.26c7.08,4.3,3.65,11.38,3.24,12.15a9,9,0,0,0,.08,1.24,4.66,4.66,0,0,1-.07,2.27c-.25.52-2.59,4.37-5,5.21A1.7,1.7,0,0,1,155.91,166Zm-2.65-20.9a7.32,7.32,0,0,0-4.31,1.4,7.45,7.45,0,0,0-2.86,7.85c.84,3.61,5.38,8,8.26,9.59,1,.57,1.55.59,1.67.55,1.63-.59,3.75-3.71,4.11-4.45a8.41,8.41,0,0,0-.08-1.47c-.1-1.09-.15-1.67.09-2.08,0-.07,3.54-6.4-2.69-10.18A8.13,8.13,0,0,0,153.26,145.09Zm8.19,12.13v0Z"/><g class="cls-8"><path class="cls-2" d="M161.07,148.93l-8.83-4.53-.12,0-3.84,2.07c-.17.18,2.62,9.72,12.46,11.28a2.13,2.13,0,0,1,0-.91C161,156.51,163,152.57,161.07,148.93Z"/></g><path class="cls-2" d="M147.05,145.57c1,2.43,4.22,9.48,15.79,10.62l-.43-8.59c-3.55-4.3-6-4.95-9.8-5Z"/><path class="cls-2" d="M148.46,142.75c-6.33-1.08-10.37,5.32-6.93,11.08l10-6Z"/><path class="cls-2" d="M138.35,171.53c5.89,1.07,8-1.92,8.65-5.9a25.27,25.27,0,0,0,.33-8.36,35.09,35.09,0,0,1-.28-4c4.32-1.52,5-6.27,3.87-9.18-1.72-4.43-7.08,4.13-7.08,4.13l-3.2,9.21Z"/><circle class="cls-3" cx="147.55" cy="155.04" r="2.24"/><path class="cls-3" d="M193.28,249.5c-6.11,1.68-10.66,2.68-13.8.94l1.66-1.73c-3.54-1-6.31-2.13-7-7.16l3.5.26-3.5-3.67a15.51,15.51,0,0,1,6.37-9c1.21,10.46,2,13.5,11.53,17.56Z"/><path class="cls-2" d="M183.54,252.09a9,9,0,0,1-4.42-1l-.85-.48,1.47-1.54c-3.14-1-5.67-2.55-6.36-7.42l-.13-.92,2.48.18-2.44-2.56.1-.4c.81-3.21,3.19-7.4,6.72-9.51l1-.59.14,1.15c1.18,10.2,1.87,13,11.07,17l.28.11,1.72,3.91-.83.23A40.11,40.11,0,0,1,183.54,252.09Zm-2.78-1.9c2.77.95,6.71.1,11.48-1.18l-.79-1.78c-9.26-4-10.42-7.42-11.56-16.81a15.47,15.47,0,0,0-4.94,7.51l4.55,4.77-4.47-.33c.84,3.81,3.17,4.75,6.31,5.61l1.21.34Z"/><polyline class="cls-7" points="198.49 262.5 201.18 274.68 198.92 274.68 189.87 264.65"/><polygon class="cls-2" points="202.11 275.43 198.58 275.43 189.31 265.16 190.42 264.15 199.25 273.93 200.24 273.93 197.75 262.66 199.22 262.34 202.11 275.43"/><polygon class="cls-3" points="224.34 245.43 192.02 246.66 184.26 274.68 187.6 274.68 195.36 265.41 215.08 264.44 212.38 274.68 216.26 274.68 232.32 253.99 224.34 245.43"/><path class="cls-6" d="M249,239.74h-4.11a4.1,4.1,0,0,0,3.78,4.09Z"/><path class="cls-3" d="M232.32,254l2.73-3.39h8.3a4.54,4.54,0,0,0,4.46-3.65l1.43-7.19H242l0-.07c0-1.83-1.53-3.29-3.36-4.25l-6.31,0-5.5-5.78v9.59l-2.47,6.21Z"/><path class="cls-16" d="M217.3,245.45l-6.94.48a7,7,0,0,0,13.9-.48Z"/><path class="cls-16" d="M188.37,259.1l-1.11,4.78a5.1,5.1,0,0,0,1.11.12,4.91,4.91,0,0,0,1.91-9.43Z"/><rect class="cls-2" x="199.92" y="197.72" width="1.5" height="58.95" transform="translate(-101.99 243.97) rotate(-51.72)"/><polygon class="cls-2" points="165.71 262.81 166.18 266.87 160.64 266.87 160.47 262.81 165.71 262.81"/><polygon class="cls-2" points="140.42 249.03 134.81 252.87 131.69 249.42 136.87 245.15 140.42 249.03"/><path class="cls-3" d="M177.89,274H157.62l2.69-7.16h6.22C166.19,271.36,177.9,271.22,177.89,274Z"/><path class="cls-2" d="M178.64,274.78h-22.1l3.25-8.66h7.55l-.06.8c-.15,1.92,3.16,2.9,6.08,3.76s5.29,1.56,5.28,3.35Zm-19.93-1.5h17.58a24.47,24.47,0,0,0-3.36-1.17c-3.14-.92-6.67-2-7.11-4.49h-5Z"/><path class="cls-3" d="M139.48,265.6l-14.33-14.33,7-3.17,4.4,4.4C133.09,255.44,141.47,263.62,139.48,265.6Z"/><path class="cls-2" d="M139.48,266.66,123.85,251l8.42-3.83,5.34,5.34-.62.53c-1.45,1.26.2,4.28,1.65,6.95s2.64,4.85,1.37,6.11Zm-13-15.16,12.44,12.44a24.07,24.07,0,0,0-1.56-3.2c-1.57-2.88-3.33-6.11-1.85-8.21L131.94,249Z"/><polyline class="cls-3" points="157.92 236.79 140.99 249.89 136.08 244.65 149.32 228.71 151.81 221.52"/><polygon class="cls-2" points="140.91 250.9 135.08 244.68 148.65 228.33 151.11 221.28 152.52 221.77 149.89 229.18 137.08 244.62 141.07 248.88 157.46 236.2 158.38 237.39 140.91 250.9"/><path class="cls-3" d="M167.7,262.81h-8.4l-1.77-29.47L146.14,209.8a12.44,12.44,0,0,1-.84-8.53l1.59-6.17H159L169.34,233Z"/><path class="cls-2" d="M168.41,263.56h-9.82l-1.8-30-11.32-23.4a13.23,13.23,0,0,1-.9-9l1.74-6.73H159.6l10.49,38.54Zm-8.4-1.5h7l1.59-29-10.13-37.2h-11L146,201.46a11.67,11.67,0,0,0,.8,8l11.45,23.68Z"/><path class="cls-3" d="M168.33,200.16l4.47,4.31,2.72.27,4.69,2.35c-.47,1-1.37.3-3.08-.47l3.24,4.56a.32.32,0,0,1-.05.42c-.79.69-3.25,1-5,1a2.42,2.42,0,0,1-1.26-.38L172,210.82l-3.09-4.47-4.47-4.14Z"/><path class="cls-2" d="M175.49,213.3h-.16a3.14,3.14,0,0,1-1.66-.5l-2.19-1.44-3.13-4.52-5.19-4.8,5.29-2.79,4.68,4.5,2.72.32,5.36,2.68-.32.67a1.48,1.48,0,0,1-1.64.89l1.73,2.43a1.07,1.07,0,0,1-.17,1.43C179.78,213.06,177.05,213.3,175.49,213.3Zm-2.94-3,1.94,1.27a1.52,1.52,0,0,0,.85.26,11.74,11.74,0,0,0,4.15-.57l-4-5.68-.14-.07-2.85-.29-4.26-4.11-2.46,1.3,3.8,3.54Z"/><path class="cls-6" d="M169.34,200.31l-4.84,2.55-2.53-2.7c-5.3-.18-14,7.65-18.5,4.28,1.88-4.31,2.69-12.59.16-26.3a11.52,11.52,0,0,1,.86-6.57l2.51-5.94,6.37,3.38,6.25,9a4.38,4.38,0,0,1,.5,4.06l-1.37,3.58C162.86,194.21,165.86,197.49,169.34,200.31Z"/><polygon class="cls-2" points="164.35 203.79 153.93 192.68 147.43 181.71 148.72 180.94 155.18 191.85 164.66 201.93 168.18 200.07 159.47 189.33 153.07 176.92 154.4 176.24 160.76 188.58 170.5 200.54 164.35 203.79"/><polygon class="cls-7" points="229.29 257.89 236.06 262.29 230.43 272.95 228.74 272.26 228.98 265.62 224.51 264.04 229.29 257.89"/><path class="cls-2" d="M230.78,273.9,228,272.76l.24-6.61-4.92-1.75,5.83-7.51,7.93,5.15Zm-1.27-2.14.58.24,5-9.45-5.62-3.65-3.72,4.78,4,1.42Z"/><path class="cls-6" d="M249,239.74h-4.11a4.1,4.1,0,0,0,3.78,4.09Z"/><path class="cls-2" d="M232.36,255.13l-8.89-9.54,2.6-6.51V227.76l6.57,6.9,6.18,0,.16.09c2.1,1.11,3.39,2.59,3.69,4.23h7.48l-1.61,8.08a5.31,5.31,0,0,1-5.19,4.27h-7.94Zm-7.14-9.87,7.06,7.58,2.42-3h8.65a3.8,3.8,0,0,0,3.72-3.06l1.25-6.29h-6.84l-.24-.8c0-1.72-1.7-2.92-2.8-3.52l-6.44,0-4.43-4.65v7.86Z"/><path class="cls-2" d="M216.63,275.43h-5.22l2.68-10.19-18.37.9L188,275.43h-4.67l8.16-29.5,33.22-1.27,8.64,9.28Zm-3.27-1.5h2.54L231.34,254,224,246.19l-31.43,1.2-7.35,26.54h2l7.75-9.25,21.07-1Z"/><rect class="cls-7" x="226.84" y="241.37" width="2.63" height="16.26" transform="translate(565 278.46) rotate(137.35)"/><polygon class="cls-2" points="47.98 266.22 43.7 272.71 41.17 271.58 43.2 265.62 47.98 266.22"/><polygon class="cls-2" points="68.46 266.22 70.28 272.29 66.65 273.45 64.92 267.9 68.46 266.22"/><path class="cls-3" d="M53.34,279.5H48.63l-11.55-3.29L40.71,271l5,1.29C44.5,275.85,53.93,277.25,53.34,279.5Z"/><path class="cls-2" d="M53.92,280.25l-5.49,0-12.57-3.58,4.53-6.47,6.27,1.62-.26.77c-.42,1.25,1.47,2.3,4,3.54,2.2,1.08,4.09,2,3.68,3.59Zm-5.18-1.5h3.37a21.2,21.2,0,0,0-2.38-1.31c-2.24-1.1-5-2.44-4.9-4.57l-3.8-1-2.73,3.89Z"/><path class="cls-3" d="M80.9,275.26,65.11,279.5l.2-6.6,5.09-1.73C71.38,274.94,80.25,271.17,80.9,275.26Z"/><path class="cls-2" d="M64.33,280.49l.25-8.14,6.34-2.15.21.78c.31,1.2,2,1.32,4.5,1.36s5.58.09,6,2.81l.11.66ZM66,273.44l-.15,5.08,14-3.77c-.59-.78-2.1-.87-4.3-.91S71,273.76,70,272.1Z"/><polyline class="cls-3" points="59.9 226.35 69.26 267.46 64.92 269.72 50.54 233.48"/><polygon class="cls-2" points="64.53 270.77 49.84 233.76 51.24 233.21 65.31 268.68 68.4 267.07 59.17 226.52 60.63 226.18 70.12 267.86 64.53 270.77"/><path class="cls-3" d="M47.38,269.26l-6.16-1.8,8.94-20.66-1.7-11.9a10.21,10.21,0,0,1,.77-5.59l2.67-6.08,9.83,6-1.37,10.06-3.2,11.36Z"/><path class="cls-2" d="M47.76,270.15,40.19,268l9.19-21.25L47.72,235a11,11,0,0,1,.82-6l3-6.85,11,6.69-1.46,10.64L57.82,251ZM42.24,267,47,268.36l9.46-18,3.17-11.24,1.29-9.51-8.68-5.29-2.33,5.29a9.59,9.59,0,0,0-.71,5.18l1.73,12.12Z"/><path class="cls-16" d="M14.61,239.76H29.28a0,0,0,0,1,0,0v31.84a6.74,6.74,0,0,1-6.74,6.74H14.61a0,0,0,0,1,0,0V239.76a0,0,0,0,1,0,0Z" transform="translate(-145.72 457.76) rotate(-135)"/><rect class="cls-4" x="9.17" y="245.89" width="2.91" height="24.13" transform="translate(-164.27 447.87) rotate(-135)"/><polygon class="cls-2" points="13.37 278.83 0 265.46 18.12 247.34 20.71 249.92 19.65 250.98 18.12 249.46 2.12 265.46 14.43 277.76 13.37 278.83"/><circle class="cls-2" cx="13.02" cy="276.7" r="2.74"/><path class="cls-2" d="M13,280.19a3.47,3.47,0,0,1-2.47-1,3.49,3.49,0,0,1,0-4.93,3.56,3.56,0,0,1,4.93,0A3.49,3.49,0,0,1,13,280.19Zm0-5.47a1.94,1.94,0,0,0-1.4.58,2,2,0,1,0,2.8,0A1.94,1.94,0,0,0,13,274.72Z"/><line class="cls-2" x1="28.97" y1="252.03" x2="18.61" y2="262.39"/><rect class="cls-2" x="16.47" y="256.46" width="14.64" height="1.5" transform="translate(-174.91 92.16) rotate(-45)"/><line class="cls-2" x1="51.47" y1="239.9" x2="13.49" y2="277.88"/><rect class="cls-2" x="5.62" y="258.14" width="53.72" height="1.5" transform="translate(-173.55 98.79) rotate(-45)"/><path class="cls-3" d="M54.93,197.53c.61,1.41-1.25,5.64-1.59,8.7,0,0,.32,1.29,2.28,1.6,1.58.26,2.39-3.54,3.57-5.91C60.08,200.14,54.93,197.53,54.93,197.53Z"/><path class="cls-2" d="M55.8,208.6a1.53,1.53,0,0,1-.3,0,3.27,3.27,0,0,1-2.89-2.16l0-.13v-.13a29.66,29.66,0,0,1,.95-4.24c.42-1.56,1-3.5.7-4.09l-.81-1.89,1.84.93c1.37.69,5.73,3.12,4.59,5.4-.32.64-.62,1.42-.91,2.17C58.12,206.57,57.33,208.6,55.8,208.6Zm-1.69-2.46a2,2,0,0,0,1.63,1c.53.09,1.36-2.05,1.81-3.2.3-.79.62-1.6,1-2.3.24-.48-1-1.67-2.75-2.74a23.63,23.63,0,0,1-.79,3.46A31.34,31.34,0,0,0,54.11,206.14Z"/><g class="cls-8"><path class="cls-2" d="M55.51,197a4,4,0,0,1-.19,2.18,13.44,13.44,0,0,0,3.34,4.48,7.38,7.38,0,0,1,1.11-2.27C60.66,199.59,55.51,197,55.51,197Z"/></g><path class="cls-3" d="M61.69,202.76c1.74-.53,3.83-3.45,4.11-4s-.12-2.63.14-3,3.45-6-2.06-9.74a7.06,7.06,0,0,0-11.1,7.06C53.57,197.51,60,203.28,61.69,202.76Z"/><path class="cls-2" d="M61.44,203.54a4.19,4.19,0,0,1-2.07-.76c-2.58-1.58-6.67-5.88-7.33-9.54a7.77,7.77,0,0,1,3.41-8,7.88,7.88,0,0,1,8.85.21c5.91,4,2.74,10,2.31,10.71a8.91,8.91,0,0,0,0,1,4,4,0,0,1-.17,2c-.24.44-2.45,3.68-4.54,4.31h0A1.45,1.45,0,0,1,61.44,203.54Zm-1.79-18.1A6.3,6.3,0,0,0,53.52,193c.54,3,4,6.79,6.32,8.33a3.28,3.28,0,0,0,1.63.74c1.38-.42,3.34-3,3.67-3.6a8.55,8.55,0,0,0,0-1.21c0-1-.06-1.48.19-1.85,0,0,3.25-5.26-1.85-8.71A6.73,6.73,0,0,0,59.65,185.44Zm6.93,10.74,0,0Z"/><g class="cls-8"><path class="cls-2" d="M66.51,189l-7.39-4.27H59l-3.39,1.61a13.46,13.46,0,0,0,10.22,10.24,1.72,1.72,0,0,1,.09-.79C66.13,195.5,68,192.2,66.51,189Z"/></g><path class="cls-7" d="M54.61,185.5c.76,2.13,3.22,8.33,13.11,9.81,1.19-3.83-.19-8.53-3.76-10.09l-3.74.89Z"/><path class="cls-16" d="M62.94,232.81c-4.68-.69-13,1-16.7-2.47,2.1-3.64,4.06-6.18,3.19-18.6A10.25,10.25,0,0,1,50.85,206l2.82-5L59,204.6l3.43,5.68a3.93,3.93,0,0,1,.13,3.82L61,217C60.26,219.67,63,226.35,62.94,232.81Z"/><path class="cls-3" d="M47.19,222.39l3.35-8.11,6,.66-4.87,8.81-.16,11.15,1.24,1.45,1.13,3.14a.37.37,0,0,1-.06.35.39.39,0,0,1-.32.13c-.44-.06-.77-.49-1.13-1.4l-.3,3.49a.22.22,0,0,1-.24.21,7.12,7.12,0,0,1-3-2,1.61,1.61,0,0,1-.46-.81l-.4-1.72.44-2.75Z"/><path class="cls-2" d="M51.84,243h-.06c-1.32-.09-3.28-2-3.5-2.19a2.3,2.3,0,0,1-.67-1.18l-.43-1.86.44-2.8-1.19-12.71,3.63-8.81,7.68.85L52.41,224l-.14,10.68,1.19,1.47,1.12,3.14a1.12,1.12,0,0,1-.18,1.07,1.09,1.09,0,0,1-1,.4,1.31,1.31,0,0,1-.45-.13l-.13,1.55A1,1,0,0,1,51.84,243Zm-3.14-5.29.37,1.58a.89.89,0,0,0,.26.45,9.65,9.65,0,0,0,2.05,1.57l.42-4.93-1-1.22.16-11.63,4.42-8L51,215.09,48,222.5,49.14,235Z"/><path class="cls-17" d="M52.37,206.47l-3.74,7.81c1.79,2.21,5.93,4.26,7.91,3.63l2.36-6.18"/><path class="cls-16" d="M52.37,206.47l-3.74,7.81c1.79,2.21,5.93,4.26,7.91,3.63l2.36-6.18"/><path class="cls-2" d="M55.7,218.78c-2.46,0-6-2-7.65-4l-.3-.37,4-8.23,1.35.65-3.53,7.36c1.67,1.78,4.81,3.27,6.46,3.11l2.22-5.81,1.4.53-2.49,6.53-.34.11A3.64,3.64,0,0,1,55.7,218.78Z"/><path class="cls-7" d="M56.06,186.37s.89,3-6.93,4.38c-1.44.25-7,0-9-3-.35-.53-.16-.53-.1-.46a2.49,2.49,0,0,0,.49.38,1.15,1.15,0,0,0,.76.2s0,0,0,0a3.57,3.57,0,0,1-1-.65c-.45-.44-1.1-1.54-1-1.54.34,0,.66.44,1.67.64.81.16,3.63.44,6.34-3.41,4.32-6.14,10-1.85,9.39,1.75Z"/><path class="cls-7" d="M64.12,185.39a4.8,4.8,0,0,0-2.72-1.87c-2-.51-4.2-.77-6.21,1.15a9.26,9.26,0,0,0-3,9.4,11.52,11.52,0,0,0,2,3.67c.11.09.61-2.15,1.38-2.64,1.12-.71,1.31-1.1,1.1-2.37-.14-.79,1.36-.89,1.7-.8l-.08,1.4a17.3,17.3,0,0,0,3-3.18Z"/><path class="cls-4" d="M64,185.22s-3.4-.71-7.07,8.29c0,0,.54-8.16,5.61-9.47A4.63,4.63,0,0,1,64,185.22Z"/><circle class="cls-12" cx="57.25" cy="193.38" r="1.93"/></g></svg>