<svg id="Layer_1" data-name="Layer 1" xmlns="http://www.w3.org/2000/svg" viewBox="0 0 1171.98 374.42"><defs><style>.cls-1{fill:#f9f8f7;}.cls-2{fill:#76c5f7;}.cls-3{fill:#15326f;}.cls-4{fill:#fff;}.cls-5{fill:#ff9a65;}.cls-6{fill:#fdfdfc;}.cls-7{fill:#2474de;}.cls-8{fill:#1c4695;}.cls-9{fill:none;}.cls-10{fill:#8ec089;}.cls-11{fill:#f3f1ef;}.cls-12{fill:#318eee;}.cls-13{opacity:0.1;}.cls-14{opacity:0.05;}.cls-15{opacity:0.4;}</style></defs><title>lyp-hero</title><polygon class="cls-1" points="371.67 134.35 300.89 134.35 255.7 177.8 255.7 281.51 300.89 281.51 346.09 281.51 416.87 281.51 416.87 177.8 371.67 134.35"/><polygon class="cls-2" points="416.87 177.8 346.09 177.8 300.89 134.35 371.67 134.35 416.87 177.8"/><polygon class="cls-3" points="346.84 281.51 345.34 281.51 345.34 178.12 300.38 134.9 301.42 133.81 346.84 177.48 346.84 281.51"/><rect class="cls-4" x="278.55" y="186.47" width="41.17" height="14.01"/><path class="cls-3" d="M320.47,201.24H277.8V185.72h42.67Zm-41.17-1.5H319V187.22H279.3Z"/><rect class="cls-5" x="278.55" y="213.63" width="41.17" height="14.01"/><path class="cls-3" d="M320.47,228.39H277.8V212.88h42.67Zm-41.17-1.5H319V214.38H279.3Z"/><path class="cls-3" d="M417.62,282.26H255V177.48l45.64-43.88H372l.22.21,45.43,43.67Zm-161.17-1.5H416.12V178.12l-44.75-43H301.2l-44.75,43Z"/><rect class="cls-4" x="360.9" y="214.32" width="14.01" height="14.01"/><path class="cls-3" d="M375.66,229.09H360.15V213.57h15.51Zm-14-1.5h12.51V215.07H361.65Z"/><rect class="cls-5" x="388.05" y="214.32" width="14.01" height="14.01"/><path class="cls-3" d="M402.82,229.09H387.3V213.57h15.52Zm-14-1.5h12.52V215.07H388.8Z"/><rect class="cls-6" x="148.31" y="98.54" width="122.69" height="234.22"/><path class="cls-3" d="M234.19,99.29h-91V90h91Zm-89.46-1.5h88V91.47h-88Z"/><rect class="cls-7" x="233.44" y="98.54" width="37.56" height="234.22" transform="translate(504.45 431.31) rotate(180)"/><path class="cls-3" d="M271.75,333.52H147.56V97.79H271.75ZM149.06,332H270.25V99.29H149.06Z"/><rect class="cls-2" x="165.96" y="117.99" width="10.22" height="22.4"/><path class="cls-3" d="M176.93,141.14H165.21v-23.9h11.72Zm-10.22-1.5h8.72v-20.9h-8.72Z"/><path class="cls-3" d="M196.74,141.14H185v-23.9h11.72Zm-10.22-1.5h8.72v-20.9h-8.72Z"/><path class="cls-3" d="M176.93,174.05H165.21v-23.9h11.72Zm-10.22-1.5h8.72v-20.9h-8.72Z"/><path class="cls-3" d="M196.74,174.05H185v-23.9h11.72Zm-10.22-1.5h8.72v-20.9h-8.72Z"/><path class="cls-3" d="M216.54,141.14H204.82v-23.9h11.72Zm-10.22-1.5H215v-20.9h-8.72Z"/><rect class="cls-3" x="205.57" y="150.9" width="10.22" height="22.4"/><path class="cls-3" d="M216.54,174.05H204.82v-23.9h11.72Zm-10.22-1.5H215v-20.9h-8.72Z"/><path class="cls-3" d="M176.93,207H165.21v-23.9h11.72Zm-10.22-1.5h8.72v-20.9h-8.72Z"/><rect class="cls-5" x="185.77" y="183.8" width="10.22" height="22.4"/><path class="cls-3" d="M196.74,207H185v-23.9h11.72Zm-10.22-1.5h8.72v-20.9h-8.72Z"/><path class="cls-3" d="M216.54,207H204.82v-23.9h11.72Zm-10.22-1.5H215v-20.9h-8.72Z"/><path class="cls-3" d="M176.93,239.85H165.21V216h11.72Zm-10.22-1.5h8.72v-20.9h-8.72Z"/><path class="cls-3" d="M176.93,272.75H165.21v-23.9h11.72Zm-10.22-1.5h8.72v-20.9h-8.72Z"/><path class="cls-3" d="M176.93,305.66H165.21V281.75h11.72Zm-10.22-1.5h8.72V283.25h-8.72Z"/><path class="cls-3" d="M196.74,239.85H185V216h11.72Zm-10.22-1.5h8.72v-20.9h-8.72Z"/><path class="cls-3" d="M216.54,239.85H204.82V216h11.72Zm-10.22-1.5H215v-20.9h-8.72Z"/><path class="cls-3" d="M196.74,272.75H185v-23.9h11.72Zm-10.22-1.5h8.72v-20.9h-8.72Z"/><path class="cls-3" d="M216.54,272.75H204.82v-23.9h11.72Zm-10.22-1.5H215v-20.9h-8.72Z"/><path class="cls-3" d="M258.08,141.14H246.36v-23.9h11.72Zm-10.22-1.5h8.72v-20.9h-8.72Z"/><rect class="cls-1" x="247.11" y="150.9" width="10.22" height="22.4"/><path class="cls-3" d="M258.08,207H246.36v-23.9h11.72Zm-10.22-1.5h8.72v-20.9h-8.72Z"/><path class="cls-3" d="M258.08,239.85H246.36V216h11.72Zm-10.22-1.5h8.72v-20.9h-8.72Z"/><rect class="cls-5" x="247.11" y="249.6" width="10.22" height="22.4"/><path class="cls-3" d="M258.08,272.75H246.36v-23.9h11.72Zm-10.22-1.5h8.72v-20.9h-8.72Z"/><path class="cls-3" d="M276.08,99.29H143.23V90H276.08Zm-131.35-1.5H274.58V91.47H144.73Z"/><path class="cls-3" d="M255.3,91.47H164V82.16H255.3ZM165.52,90H253.8V83.66H165.52Z"/><path class="cls-3" d="M228.58,91.47H164V82.16h64.56ZM165.52,90h61.56V83.66H165.52Z"/><rect class="cls-3" x="185.02" y="72.23" width="1.5" height="10.68"/><rect class="cls-3" x="195.24" y="65.9" width="1.5" height="17"/><rect class="cls-3" x="175.88" y="305.92" width="29.99" height="23.71" transform="translate(-126.89 508.65) rotate(-90)"/><path class="cls-3" d="M203.48,333.52H178.27V302h25.21ZM179.77,332H202v-28.5H179.77Z"/><polygon class="cls-1" points="452.81 172.6 396.25 172.6 360.13 207.32 360.13 304.23 396.25 304.23 432.37 304.23 488.93 304.23 488.93 207.32 452.81 172.6"/><polygon class="cls-8" points="488.93 207.32 432.37 207.32 396.25 172.6 452.81 172.6 488.93 207.32"/><polygon class="cls-9" points="432.37 207.32 396.25 172.6 360.13 207.32 360.13 304.23 432.37 304.23 432.37 207.32"/><polygon class="cls-3" points="433.12 304.23 431.62 304.23 431.62 207.64 395.73 173.14 396.77 172.06 433.12 207 433.12 304.23"/><rect class="cls-4" x="378.39" y="214.25" width="35.27" height="11.2"/><path class="cls-3" d="M414.41,226.21H377.64V213.5h36.77Zm-35.27-1.5h33.77V215H379.14Z"/><rect class="cls-5" x="378.39" y="235.96" width="32.9" height="11.2"/><path class="cls-3" d="M412,247.91h-34.4v-12.7H412Zm-32.9-1.5h31.4v-9.7h-31.4Z"/><path class="cls-3" d="M489.68,305H359.38V207L396,171.85h57.16L489.68,207Zm-128.8-1.5h127.3V207.64l-35.67-34.29h-56l-35.67,34.29Z"/><rect class="cls-4" x="444.2" y="235.96" width="11.2" height="11.2"/><path class="cls-3" d="M456.15,247.91h-12.7v-12.7h12.7Zm-11.2-1.5h9.7v-9.7H445Z"/><rect class="cls-5" x="465.9" y="235.96" width="11.2" height="11.2"/><path class="cls-3" d="M477.85,247.91h-12.7v-12.7h12.7Zm-11.2-1.5h9.7v-9.7h-9.7Z"/><path class="cls-10" d="M319.39,258.72H227c-48,0-55.22,48.23-84,48.23-31.17,0-61.1,10.7-83.32,29.79L0,374.42H319.39Z"/><path class="cls-11" d="M79.39,374.42h1.47a1.4,1.4,0,0,0-.74-2.59,1.4,1.4,0,0,0-.73,2.59Zm5.6,0h1.47a1.4,1.4,0,0,0-.74-2.59,1.4,1.4,0,0,0-.73,2.59Zm5.6,0h1.47a1.4,1.4,0,0,0-.74-2.59,1.4,1.4,0,0,0-.73,2.59Zm6.33-8.19a1.4,1.4,0,1,0,1.4,1.4A1.4,1.4,0,0,0,96.92,366.23Zm-.73,8.19h1.47a1.4,1.4,0,0,0-.74-2.59,1.4,1.4,0,0,0-.73,2.59ZM101.12,362a1.4,1.4,0,1,0,1.4-1.4A1.4,1.4,0,0,0,101.12,362Zm0,5.6a1.4,1.4,0,1,0,1.4-1.4A1.4,1.4,0,0,0,101.12,367.63Zm.67,6.79h1.47a1.4,1.4,0,0,0-.74-2.59,1.4,1.4,0,0,0-.73,2.59ZM106.72,362a1.4,1.4,0,1,0,1.4-1.4A1.4,1.4,0,0,0,106.72,362Zm0,5.6a1.4,1.4,0,1,0,1.4-1.4A1.4,1.4,0,0,0,106.72,367.63Zm.67,6.79h1.47a1.4,1.4,0,0,0-.74-2.59,1.4,1.4,0,0,0-.73,2.59Zm4.93-18a1.4,1.4,0,1,0,1.4-1.4A1.4,1.4,0,0,0,112.32,356.43Zm0,5.6a1.4,1.4,0,1,0,1.4-1.4A1.4,1.4,0,0,0,112.32,362Zm0,5.6a1.4,1.4,0,1,0,1.4-1.4A1.4,1.4,0,0,0,112.32,367.63Zm.67,6.79h1.47a1.4,1.4,0,0,0-.74-2.59,1.4,1.4,0,0,0-.73,2.59Zm4.93-23.59a1.4,1.4,0,1,0,1.4-1.4A1.4,1.4,0,0,0,117.92,350.83Zm0,5.6a1.4,1.4,0,1,0,1.4-1.4A1.4,1.4,0,0,0,117.92,356.43Zm0,5.6a1.4,1.4,0,1,0,1.4-1.4A1.4,1.4,0,0,0,117.92,362Zm0,5.6a1.4,1.4,0,1,0,1.4-1.4A1.4,1.4,0,0,0,117.92,367.63Zm.67,6.79h1.47a1.4,1.4,0,0,0-.74-2.59,1.4,1.4,0,0,0-.73,2.59Zm4.93-23.59a1.4,1.4,0,1,0,1.4-1.4A1.4,1.4,0,0,0,123.52,350.83Zm0,5.6a1.4,1.4,0,1,0,1.4-1.4A1.4,1.4,0,0,0,123.52,356.43Zm0,5.6a1.4,1.4,0,1,0,1.4-1.4A1.4,1.4,0,0,0,123.52,362Zm0,5.6a1.4,1.4,0,1,0,1.4-1.4A1.4,1.4,0,0,0,123.52,367.63Zm.67,6.79h1.47a1.4,1.4,0,0,0-.74-2.59,1.4,1.4,0,0,0-.73,2.59Zm4.93-29.19a1.4,1.4,0,1,0,1.4-1.4A1.4,1.4,0,0,0,129.12,345.23Zm0,5.6a1.4,1.4,0,1,0,1.4-1.4A1.4,1.4,0,0,0,129.12,350.83Zm0,5.6a1.4,1.4,0,1,0,1.4-1.4A1.4,1.4,0,0,0,129.12,356.43Zm0,5.6a1.4,1.4,0,1,0,1.4-1.4A1.4,1.4,0,0,0,129.12,362Zm0,5.6a1.4,1.4,0,1,0,1.4-1.4A1.4,1.4,0,0,0,129.12,367.63Zm.67,6.79h1.47a1.4,1.4,0,0,0-.74-2.59,1.4,1.4,0,0,0-.73,2.59Zm4.93-29.19a1.4,1.4,0,1,0,1.4-1.4A1.4,1.4,0,0,0,134.72,345.23Zm0,5.6a1.4,1.4,0,1,0,1.4-1.4A1.4,1.4,0,0,0,134.72,350.83Zm0,5.6a1.4,1.4,0,1,0,1.4-1.4A1.4,1.4,0,0,0,134.72,356.43Zm0,5.6a1.4,1.4,0,1,0,1.4-1.4A1.4,1.4,0,0,0,134.72,362Zm0,5.6a1.4,1.4,0,1,0,1.4-1.4A1.4,1.4,0,0,0,134.72,367.63Zm.67,6.79h1.47a1.4,1.4,0,0,0-.74-2.59,1.4,1.4,0,0,0-.73,2.59Zm4.93-29.19a1.4,1.4,0,1,0,1.4-1.4A1.4,1.4,0,0,0,140.32,345.23Zm0,5.6a1.4,1.4,0,1,0,1.4-1.4A1.4,1.4,0,0,0,140.32,350.83Zm0,5.6a1.4,1.4,0,1,0,1.4-1.4A1.4,1.4,0,0,0,140.32,356.43Zm0,5.6a1.4,1.4,0,1,0,1.4-1.4A1.4,1.4,0,0,0,140.32,362Zm0,5.6a1.4,1.4,0,1,0,1.4-1.4A1.4,1.4,0,0,0,140.32,367.63Zm.67,6.79h1.47a1.4,1.4,0,0,0-.74-2.59,1.4,1.4,0,0,0-.73,2.59Zm4.93-34.79a1.4,1.4,0,1,0,1.4-1.4A1.4,1.4,0,0,0,145.92,339.63Zm0,5.6a1.4,1.4,0,1,0,1.4-1.4A1.4,1.4,0,0,0,145.92,345.23Zm0,5.6a1.4,1.4,0,1,0,1.4-1.4A1.4,1.4,0,0,0,145.92,350.83Zm0,5.6a1.4,1.4,0,1,0,1.4-1.4A1.4,1.4,0,0,0,145.92,356.43Zm0,5.6a1.4,1.4,0,1,0,1.4-1.4A1.4,1.4,0,0,0,145.92,362Zm0,5.6a1.4,1.4,0,1,0,1.4-1.4A1.4,1.4,0,0,0,145.92,367.63Zm.67,6.79h1.47a1.4,1.4,0,0,0-.74-2.59,1.4,1.4,0,0,0-.73,2.59Zm4.93-34.79a1.4,1.4,0,1,0,1.4-1.4A1.4,1.4,0,0,0,151.52,339.63Zm0,5.6a1.4,1.4,0,1,0,1.4-1.4A1.4,1.4,0,0,0,151.52,345.23Zm0,5.6a1.4,1.4,0,1,0,1.4-1.4A1.4,1.4,0,0,0,151.52,350.83Zm0,5.6a1.4,1.4,0,1,0,1.4-1.4A1.4,1.4,0,0,0,151.52,356.43Zm0,5.6a1.4,1.4,0,1,0,1.4-1.4A1.4,1.4,0,0,0,151.52,362Zm0,5.6a1.4,1.4,0,1,0,1.4-1.4A1.4,1.4,0,0,0,151.52,367.63Zm.67,6.79h1.47a1.4,1.4,0,0,0-.74-2.59,1.4,1.4,0,0,0-.73,2.59Zm6.33-36.19a1.4,1.4,0,1,0,1.4,1.4A1.4,1.4,0,0,0,158.52,338.23Zm-1.4,7a1.4,1.4,0,1,0,1.4-1.4A1.4,1.4,0,0,0,157.12,345.23Zm0,5.6a1.4,1.4,0,1,0,1.4-1.4A1.4,1.4,0,0,0,157.12,350.83Zm0,5.6a1.4,1.4,0,1,0,1.4-1.4A1.4,1.4,0,0,0,157.12,356.43Zm0,5.6a1.4,1.4,0,1,0,1.4-1.4A1.4,1.4,0,0,0,157.12,362Zm0,5.6a1.4,1.4,0,1,0,1.4-1.4A1.4,1.4,0,0,0,157.12,367.63Zm.67,6.79h1.47a1.4,1.4,0,0,0-.74-2.59,1.4,1.4,0,0,0-.73,2.59Zm4.93-34.79a1.4,1.4,0,1,0,1.4-1.4A1.4,1.4,0,0,0,162.72,339.63Zm0,5.6a1.4,1.4,0,1,0,1.4-1.4A1.4,1.4,0,0,0,162.72,345.23Zm0,5.6a1.4,1.4,0,1,0,1.4-1.4A1.4,1.4,0,0,0,162.72,350.83Zm0,5.6a1.4,1.4,0,1,0,1.4-1.4A1.4,1.4,0,0,0,162.72,356.43Zm0,5.6a1.4,1.4,0,1,0,1.4-1.4A1.4,1.4,0,0,0,162.72,362Zm0,5.6a1.4,1.4,0,1,0,1.4-1.4A1.4,1.4,0,0,0,162.72,367.63Zm.67,6.79h1.47a1.4,1.4,0,0,0-.74-2.59,1.4,1.4,0,0,0-.73,2.59Zm4.93-34.79a1.4,1.4,0,1,0,1.4-1.4A1.4,1.4,0,0,0,168.32,339.63Zm0,5.6a1.4,1.4,0,1,0,1.4-1.4A1.4,1.4,0,0,0,168.32,345.23Zm0,5.6a1.4,1.4,0,1,0,1.4-1.4A1.4,1.4,0,0,0,168.32,350.83Zm0,5.6a1.4,1.4,0,1,0,1.4-1.4A1.4,1.4,0,0,0,168.32,356.43Zm0,5.6a1.4,1.4,0,1,0,1.4-1.4A1.4,1.4,0,0,0,168.32,362Zm0,5.6a1.4,1.4,0,1,0,1.4-1.4A1.4,1.4,0,0,0,168.32,367.63Zm.67,6.79h1.47a1.4,1.4,0,0,0-.74-2.59,1.4,1.4,0,0,0-.73,2.59Zm4.93-34.79a1.4,1.4,0,1,0,1.4-1.4A1.4,1.4,0,0,0,173.92,339.63Zm0,5.6a1.4,1.4,0,1,0,1.4-1.4A1.4,1.4,0,0,0,173.92,345.23Zm0,5.6a1.4,1.4,0,1,0,1.4-1.4A1.4,1.4,0,0,0,173.92,350.83Zm0,5.6a1.4,1.4,0,1,0,1.4-1.4A1.4,1.4,0,0,0,173.92,356.43Zm0,5.6a1.4,1.4,0,1,0,1.4-1.4A1.4,1.4,0,0,0,173.92,362Zm0,5.6a1.4,1.4,0,1,0,1.4-1.4A1.4,1.4,0,0,0,173.92,367.63Zm.67,6.79h1.47a1.4,1.4,0,0,0-.74-2.59,1.4,1.4,0,0,0-.73,2.59Zm4.93-34.79a1.4,1.4,0,1,0,1.4-1.4A1.4,1.4,0,0,0,179.52,339.63Zm0,5.6a1.4,1.4,0,1,0,1.4-1.4A1.4,1.4,0,0,0,179.52,345.23Zm0,5.6a1.4,1.4,0,1,0,1.4-1.4A1.4,1.4,0,0,0,179.52,350.83Zm0,5.6a1.4,1.4,0,1,0,1.4-1.4A1.4,1.4,0,0,0,179.52,356.43Zm0,5.6a1.4,1.4,0,1,0,1.4-1.4A1.4,1.4,0,0,0,179.52,362Zm0,5.6a1.4,1.4,0,1,0,1.4-1.4A1.4,1.4,0,0,0,179.52,367.63Zm.67,6.79h1.47a1.4,1.4,0,0,0-.74-2.59,1.4,1.4,0,0,0-.73,2.59Zm4.93-34.79a1.4,1.4,0,1,0,1.4-1.4A1.4,1.4,0,0,0,185.12,339.63Zm0,5.6a1.4,1.4,0,1,0,1.4-1.4A1.4,1.4,0,0,0,185.12,345.23Zm0,5.6a1.4,1.4,0,1,0,1.4-1.4A1.4,1.4,0,0,0,185.12,350.83Zm0,5.6a1.4,1.4,0,1,0,1.4-1.4A1.4,1.4,0,0,0,185.12,356.43Zm0,5.6a1.4,1.4,0,1,0,1.4-1.4A1.4,1.4,0,0,0,185.12,362Zm0,5.6a1.4,1.4,0,1,0,1.4-1.4A1.4,1.4,0,0,0,185.12,367.63Zm.67,6.79h1.47a1.4,1.4,0,0,0-.74-2.59,1.4,1.4,0,0,0-.73,2.59Zm4.93-34.79a1.4,1.4,0,1,0,1.4-1.4A1.4,1.4,0,0,0,190.72,339.63Zm0,5.6a1.4,1.4,0,1,0,1.4-1.4A1.4,1.4,0,0,0,190.72,345.23Zm0,5.6a1.4,1.4,0,1,0,1.4-1.4A1.4,1.4,0,0,0,190.72,350.83Zm0,5.6a1.4,1.4,0,1,0,1.4-1.4A1.4,1.4,0,0,0,190.72,356.43Zm0,5.6a1.4,1.4,0,1,0,1.4-1.4A1.4,1.4,0,0,0,190.72,362Zm0,5.6a1.4,1.4,0,1,0,1.4-1.4A1.4,1.4,0,0,0,190.72,367.63Zm.67,6.79h1.47a1.4,1.4,0,0,0-.74-2.59,1.4,1.4,0,0,0-.73,2.59Z"/><polyline class="cls-1" points="196.44 374.42 196.44 251.39 235.7 213.65 297.18 213.65 336.43 251.39 336.43 374.42"/><polygon class="cls-8" points="336.43 251.39 297.17 213.65 257.92 251.39 257.92 314.15 336.43 314.15 336.43 251.39"/><polygon class="cls-2" points="196.44 251.39 257.92 251.39 297.17 213.65 235.7 213.65 196.44 251.39"/><polygon class="cls-3" points="258.67 313.47 257.17 313.47 257.17 251.07 296.65 213.11 297.69 214.19 258.67 251.71 258.67 313.47"/><polygon class="cls-3" points="337.18 374.42 335.68 374.42 335.68 251.71 296.87 214.4 236 214.4 197.19 251.71 197.19 374.42 195.69 374.42 195.69 251.07 235.4 212.9 297.48 212.9 337.18 251.07 337.18 374.42"/><polygon class="cls-6" points="397.91 314.15 358.65 276.42 319.39 314.15 319.39 367.63 397.91 367.63 397.91 314.15"/><polygon class="cls-5" points="257.92 314.15 319.39 314.15 358.65 276.42 297.17 276.42 257.92 314.15"/><polygon class="cls-3" points="320.14 370.06 318.64 370.06 318.64 313.83 358.13 275.88 359.17 276.96 320.14 314.47 320.14 370.06"/><polygon class="cls-3" points="258.67 374.42 257.17 374.42 257.17 313.83 296.87 275.67 358.95 275.67 398.66 313.83 398.66 367.63 397.16 367.63 397.16 314.47 358.35 277.17 297.48 277.17 258.67 314.47 258.67 374.42"/><rect class="cls-4" x="340.77" y="317.41" width="35.76" height="12.17"/><path class="cls-3" d="M377.28,330.33H340V316.66h37.26Zm-35.76-1.5h34.26V318.16H341.52Z"/><rect class="cls-4" x="197.19" y="280.96" width="35.76" height="12.17" transform="translate(502.12 71.97) rotate(90)"/><path class="cls-3" d="M221.91,305.67H208.24V268.41h13.67Zm-12.17-1.5h10.67V269.91H209.74Z"/><rect class="cls-4" x="270.34" y="340.99" width="35.76" height="12.17"/><path class="cls-3" d="M306.85,353.92H269.59V340.24h37.26Zm-35.76-1.5h34.26V341.74H271.09Z"/><rect class="cls-5" x="340.77" y="340.99" width="35.76" height="12.17"/><path class="cls-3" d="M377.28,353.92H340V340.24h37.26Zm-35.76-1.5h34.26V341.74H341.52Z"/><rect class="cls-4" x="233.2" y="269.16" width="12.17" height="12.17" transform="translate(514.53 35.97) rotate(90)"/><path class="cls-3" d="M246.12,282.09H232.45V268.41h13.67ZM234,280.59h10.67V269.91H234Z"/><rect class="cls-5" x="233.2" y="292.75" width="12.17" height="12.17" transform="translate(538.12 59.55) rotate(90)"/><path class="cls-3" d="M246.12,305.67H232.45V292h13.67ZM234,304.17h10.67V293.5H234Z"/><path class="cls-3" d="M220.93,374.42V343.64h15.53v30.78"/><polygon class="cls-3" points="237.21 374.42 235.71 374.42 235.71 344.39 221.68 344.39 221.68 374.42 220.18 374.42 220.18 342.89 237.21 342.89 237.21 374.42"/><polygon class="cls-1" points="1059.13 167.02 997.65 167.02 958.39 204.76 958.39 344.59 997.65 344.59 1036.91 344.59 1098.39 344.59 1098.39 204.76 1059.13 167.02"/><polygon class="cls-6" points="958.39 204.76 997.65 167.02 1036.91 204.76 1036.91 267.53 958.39 267.53 958.39 204.76"/><polygon class="cls-8" points="1098.39 204.76 1036.91 204.76 997.65 167.02 1059.13 167.02 1098.39 204.76"/><polygon class="cls-3" points="1037.66 266.84 1036.16 266.84 1036.16 205.08 997.13 167.56 998.17 166.48 1037.66 204.44 1037.66 266.84"/><path class="cls-3" d="M1099.14,345.34H957.65V204.44l39.7-38.17h62.08l39.71,38.17Zm-140-1.5h138.49V205.08l-38.81-37.31H998l-38.81,37.31Z"/><polygon class="cls-6" points="896.92 267.53 936.18 229.79 975.44 267.53 975.44 357.61 896.92 357.61 896.92 267.53"/><polygon class="cls-5" points="1036.91 267.53 975.44 267.53 936.18 229.79 997.65 229.79 1036.91 267.53"/><polygon class="cls-3" points="976.19 329.61 974.69 329.61 974.69 267.85 935.66 230.33 936.7 229.25 976.19 267.21 976.19 329.61"/><path class="cls-3" d="M1037.66,330.36H896.17V267.21L935.88,229H998l39.7,38.17Zm-140-1.5h138.49v-61l-38.81-37.31H936.48l-38.81,37.31Z"/><rect class="cls-4" x="912.29" y="270.78" width="47.77" height="22.79" transform="translate(1872.36 564.35) rotate(-180)"/><path class="cls-3" d="M960.82,294.32H911.54V270h49.28ZM913,292.82h46.28V271.53H913Z"/><rect class="cls-4" x="1061.88" y="234.33" width="35.76" height="12.17" transform="translate(1320.17 -839.34) rotate(90)"/><path class="cls-3" d="M1086.59,259.05h-13.67V221.79h13.67Zm-12.17-1.5h10.67V223.29h-10.67Z"/><rect class="cls-4" x="988.73" y="294.37" width="35.76" height="12.17" transform="translate(2013.21 600.91) rotate(-180)"/><path class="cls-3" d="M1025.24,307.29H988V293.62h37.26Zm-35.76-1.5h34.26V295.12H989.48Z"/><rect class="cls-4" x="1049.46" y="222.54" width="12.17" height="12.17" transform="translate(1284.17 -826.92) rotate(90)"/><path class="cls-3" d="M1062.38,235.46h-13.67V221.79h13.67Zm-12.17-1.5h10.67V223.29h-10.67Z"/><rect class="cls-5" x="1049.46" y="246.12" width="12.17" height="12.17" transform="translate(1307.76 -803.34) rotate(90)"/><path class="cls-3" d="M1062.38,259.05h-13.67V245.37h13.67Zm-12.17-1.5h10.67V246.87h-10.67Z"/><rect class="cls-3" x="1049.84" y="305.55" width="32.6" height="15.53" transform="translate(752.83 1379.45) rotate(-90)"/><path class="cls-3" d="M1074.65,330.36h-17v-34.1h17Zm-15.53-1.5h14v-31.1h-14Z"/><path class="cls-3" d="M743.64,335.12H709.11V78.17h34.53Zm-33-1.5h31.53V79.67H710.61Z"/><rect class="cls-2" x="662.47" y="146.79" width="127.81" height="10.64" transform="translate(878.49 -574.26) rotate(90)"/><path class="cls-3" d="M732.45,216.77H720.3V87.46h12.15Zm-10.65-1.5H731V89H721.8Z"/><path class="cls-10" d="M615.75,287.93H500c-20,0-39,6.61-52.12,18.13l-2.61,2.29c-12.72,11.15-31.13,17.55-50.48,17.55-39,0-76.52,11.72-104.36,32.64l-21.14,15.88H615.75Z"/><path class="cls-11" d="M365.19,330.16a1.4,1.4,0,1,0-1.4,1.4A1.4,1.4,0,0,0,365.19,330.16Zm4.2,7a1.4,1.4,0,1,0-1.4-1.4A1.4,1.4,0,0,0,369.39,337.16Zm0-5.6a1.4,1.4,0,1,0-1.4-1.4A1.4,1.4,0,0,0,369.39,331.56Zm5.6,5.6a1.4,1.4,0,1,0-1.4-1.4A1.4,1.4,0,0,0,375,337.16Zm0-5.6a1.4,1.4,0,1,0-1.4-1.4A1.4,1.4,0,0,0,375,331.56Zm5.6,11.2a1.4,1.4,0,1,0-1.4-1.4A1.4,1.4,0,0,0,380.59,342.76Zm0-5.6a1.4,1.4,0,1,0-1.4-1.4A1.4,1.4,0,0,0,380.59,337.16Zm0-5.6a1.4,1.4,0,1,0-1.4-1.4A1.4,1.4,0,0,0,380.59,331.56Zm5.6,16.8a1.4,1.4,0,1,0-1.4-1.4A1.4,1.4,0,0,0,386.19,348.36Zm0-5.6a1.4,1.4,0,1,0-1.4-1.4A1.4,1.4,0,0,0,386.19,342.76Zm0-5.6a1.4,1.4,0,1,0-1.4-1.4A1.4,1.4,0,0,0,386.19,337.16Zm0-5.6a1.4,1.4,0,1,0-1.4-1.4A1.4,1.4,0,0,0,386.19,331.56Zm5.6,16.8a1.4,1.4,0,1,0-1.4-1.4A1.4,1.4,0,0,0,391.79,348.36Zm0-5.6a1.4,1.4,0,1,0-1.4-1.4A1.4,1.4,0,0,0,391.79,342.76Zm0-5.6a1.4,1.4,0,1,0-1.4-1.4A1.4,1.4,0,0,0,391.79,337.16Zm0-5.6a1.4,1.4,0,1,0-1.4-1.4A1.4,1.4,0,0,0,391.79,331.56Zm5.6,22.4a1.4,1.4,0,1,0-1.4-1.4A1.4,1.4,0,0,0,397.39,354Zm0-5.6A1.4,1.4,0,1,0,396,347,1.4,1.4,0,0,0,397.39,348.36Zm0-5.6a1.4,1.4,0,1,0-1.4-1.4A1.4,1.4,0,0,0,397.39,342.76Zm0-5.6a1.4,1.4,0,1,0-1.4-1.4A1.4,1.4,0,0,0,397.39,337.16Zm0-5.6a1.4,1.4,0,1,0-1.4-1.4A1.4,1.4,0,0,0,397.39,331.56ZM403,354a1.4,1.4,0,1,0-1.4-1.4A1.4,1.4,0,0,0,403,354Zm0-5.6a1.4,1.4,0,1,0-1.4-1.4A1.4,1.4,0,0,0,403,348.36Zm0-5.6a1.4,1.4,0,1,0-1.4-1.4A1.4,1.4,0,0,0,403,342.76Zm0-5.6a1.4,1.4,0,1,0-1.4-1.4A1.4,1.4,0,0,0,403,337.16Zm0-5.6a1.4,1.4,0,1,0-1.4-1.4A1.4,1.4,0,0,0,403,331.56Zm5.6,22.4a1.4,1.4,0,1,0-1.4-1.4A1.4,1.4,0,0,0,408.59,354Zm0-5.6a1.4,1.4,0,1,0-1.4-1.4A1.4,1.4,0,0,0,408.59,348.36Zm0-5.6a1.4,1.4,0,1,0-1.4-1.4A1.4,1.4,0,0,0,408.59,342.76Zm0-5.6a1.4,1.4,0,1,0-1.4-1.4A1.4,1.4,0,0,0,408.59,337.16Zm0-5.6a1.4,1.4,0,1,0-1.4-1.4A1.4,1.4,0,0,0,408.59,331.56Zm11.2,28a1.4,1.4,0,1,0-1.4-1.4A1.4,1.4,0,0,0,419.79,359.56Zm0-5.6a1.4,1.4,0,1,0-1.4-1.4A1.4,1.4,0,0,0,419.79,354Zm0-5.6a1.4,1.4,0,1,0-1.4-1.4A1.4,1.4,0,0,0,419.79,348.36Zm0-5.6a1.4,1.4,0,1,0-1.4-1.4A1.4,1.4,0,0,0,419.79,342.76Zm0-5.6a1.4,1.4,0,1,0-1.4-1.4A1.4,1.4,0,0,0,419.79,337.16Zm0-5.6a1.4,1.4,0,1,0-1.4-1.4A1.4,1.4,0,0,0,419.79,331.56Zm7,26.6a1.4,1.4,0,1,0-1.4,1.4A1.4,1.4,0,0,0,426.79,358.16Zm-1.4-4.2a1.4,1.4,0,1,0-1.4-1.4A1.4,1.4,0,0,0,425.39,354Zm0-5.6A1.4,1.4,0,1,0,424,347,1.4,1.4,0,0,0,425.39,348.36Zm0-5.6a1.4,1.4,0,1,0-1.4-1.4A1.4,1.4,0,0,0,425.39,342.76Zm0-5.6a1.4,1.4,0,1,0-1.4-1.4A1.4,1.4,0,0,0,425.39,337.16Zm0-5.6a1.4,1.4,0,1,0-1.4-1.4A1.4,1.4,0,0,0,425.39,331.56Z"/><rect class="cls-6" x="742.89" y="17" width="79.7" height="300.88"/><path class="cls-3" d="M823.34,318.63h-81.2V16.25h81.2Zm-79.7-1.5h78.2V17.75h-78.2Z"/><rect class="cls-7" x="822.59" y="17" width="46.33" height="300.88" transform="translate(1691.51 334.88) rotate(180)"/><path class="cls-3" d="M869.67,318.63H821.84V16.25h47.83Zm-46.33-1.5h44.83V17.75H823.34Z"/><rect class="cls-3" x="753.11" y="44.44" width="58.28" height="1.5"/><rect class="cls-3" x="753.11" y="58.8" width="58.28" height="1.5"/><rect class="cls-3" x="753.11" y="73.15" width="58.28" height="1.5"/><rect class="cls-3" x="753.11" y="87.51" width="58.28" height="1.5"/><rect class="cls-3" x="753.11" y="101.86" width="58.28" height="1.5"/><rect class="cls-3" x="753.11" y="116.21" width="58.28" height="1.5"/><rect class="cls-3" x="753.11" y="130.57" width="58.28" height="1.5"/><rect class="cls-3" x="753.11" y="144.92" width="58.28" height="1.5"/><rect class="cls-3" x="753.11" y="159.28" width="58.28" height="1.5"/><rect class="cls-3" x="753.11" y="173.63" width="58.28" height="1.5"/><rect class="cls-3" x="753.11" y="187.99" width="58.28" height="1.5"/><rect class="cls-3" x="753.11" y="202.34" width="58.28" height="1.5"/><rect class="cls-3" x="753.11" y="216.69" width="58.28" height="1.5"/><rect class="cls-3" x="753.11" y="231.05" width="58.28" height="1.5"/><rect class="cls-3" x="753.11" y="245.4" width="58.28" height="1.5"/><rect class="cls-3" x="753.11" y="259.76" width="58.28" height="1.5"/><rect class="cls-3" x="753.11" y="274.11" width="58.28" height="1.5"/><rect class="cls-4" x="833.98" y="44.44" width="23.54" height="1.5"/><rect class="cls-4" x="833.98" y="58.8" width="23.54" height="1.5"/><rect class="cls-4" x="833.98" y="73.15" width="23.54" height="1.5"/><rect class="cls-4" x="833.98" y="87.51" width="23.54" height="1.5"/><rect class="cls-4" x="833.98" y="101.86" width="23.54" height="1.5"/><rect class="cls-4" x="833.98" y="116.21" width="23.54" height="1.5"/><rect class="cls-4" x="833.98" y="130.57" width="23.54" height="1.5"/><rect class="cls-4" x="833.98" y="144.92" width="23.54" height="1.5"/><rect class="cls-4" x="833.98" y="159.28" width="23.54" height="1.5"/><rect class="cls-4" x="833.98" y="173.63" width="23.54" height="1.5"/><rect class="cls-4" x="833.98" y="187.99" width="23.54" height="1.5"/><rect class="cls-4" x="833.98" y="202.34" width="23.54" height="1.5"/><rect class="cls-4" x="833.98" y="216.69" width="23.54" height="1.5"/><rect class="cls-4" x="833.98" y="231.05" width="23.54" height="1.5"/><rect class="cls-4" x="833.98" y="245.4" width="23.54" height="1.5"/><rect class="cls-4" x="833.98" y="259.76" width="23.54" height="1.5"/><rect class="cls-4" x="833.98" y="274.11" width="23.54" height="1.5"/><rect class="cls-3" x="742.89" y="30.54" width="126.03" height="1.5"/><rect class="cls-3" x="821.16" y="6.33" width="1.5" height="10.68"/><rect class="cls-3" x="830.84" width="1.5" height="17"/><path class="cls-10" d="M864.52,233.7c0-20.39,9.47-39.79,23.85-73.79,14.37,34,23.84,53.4,23.84,73.79s-10.67,36.9-23.84,36.9S864.52,254.08,864.52,233.7Z"/><path class="cls-3" d="M888.37,271.35c-13.56,0-24.6-16.89-24.6-37.65,0-18.12,7.56-35.81,19-62.58q2.34-5.46,4.9-11.5l.69-1.63.69,1.63q2.55,6,4.9,11.5c11.44,26.77,19,44.46,19,62.58C913,254.46,901.93,271.35,888.37,271.35Zm0-109.52q-2.19,5.16-4.21,9.88c-11.37,26.6-18.89,44.17-18.89,62,0,19.93,10.36,36.15,23.1,36.15s23.09-16.22,23.09-36.15c0-17.82-7.51-35.39-18.88-62Q890.56,167,888.37,161.83Z"/><rect class="cls-3" x="885.74" y="230.95" width="17.96" height="1.5" transform="translate(98.22 700.52) rotate(-45)"/><rect class="cls-3" x="882.31" y="213.22" width="1.5" height="15.03" transform="translate(102.58 689.1) rotate(-45)"/><rect class="cls-3" x="887.62" y="211.7" width="1.5" height="85.23"/><path class="cls-10" d="M825.59,281.79H941.32c20,0,39,6.94,52.12,19l2.62,2.4c12.71,11.71,31.12,18.42,50.48,18.42,39,0,76.52,12.3,104.35,34.25L1172,373.71l-346.39.71Z"/><path class="cls-11" d="M1039.92,373.23a1.4,1.4,0,1,0-2.13,1.19h1.47A1.39,1.39,0,0,0,1039.92,373.23Zm-5.6,0a1.4,1.4,0,1,0-2.13,1.19h1.47A1.39,1.39,0,0,0,1034.32,373.23Zm-5.6,0a1.4,1.4,0,1,0-2.13,1.19h1.47A1.39,1.39,0,0,0,1028.72,373.23Zm-8.4-5.6a1.4,1.4,0,1,0,1.4-1.4A1.4,1.4,0,0,0,1020.32,367.63Zm2.8,5.6a1.4,1.4,0,1,0-2.13,1.19h1.47A1.39,1.39,0,0,0,1023.12,373.23Zm-7-12.6a1.4,1.4,0,1,0,1.4,1.4A1.4,1.4,0,0,0,1016.12,360.63Zm0,5.6a1.4,1.4,0,1,0,1.4,1.4A1.4,1.4,0,0,0,1016.12,366.23Zm1.4,7a1.4,1.4,0,1,0-2.13,1.19h1.47A1.39,1.39,0,0,0,1017.52,373.23Zm-7-12.6a1.4,1.4,0,1,0,1.4,1.4A1.4,1.4,0,0,0,1010.52,360.63Zm0,5.6a1.4,1.4,0,1,0,1.4,1.4A1.4,1.4,0,0,0,1010.52,366.23Zm1.4,7a1.4,1.4,0,1,0-2.13,1.19h1.47A1.39,1.39,0,0,0,1011.92,373.23Zm-7-18.2a1.4,1.4,0,1,0,1.4,1.4A1.4,1.4,0,0,0,1004.92,355Zm0,5.6a1.4,1.4,0,1,0,1.4,1.4A1.4,1.4,0,0,0,1004.92,360.63Zm0,5.6a1.4,1.4,0,1,0,1.4,1.4A1.4,1.4,0,0,0,1004.92,366.23Zm1.4,7a1.4,1.4,0,1,0-2.13,1.19h1.47A1.39,1.39,0,0,0,1006.32,373.23Zm-7-23.8a1.4,1.4,0,1,0,1.4,1.4A1.4,1.4,0,0,0,999.32,349.43Zm0,5.6a1.4,1.4,0,1,0,1.4,1.4A1.4,1.4,0,0,0,999.32,355Zm0,5.6a1.4,1.4,0,1,0,1.4,1.4A1.4,1.4,0,0,0,999.32,360.63Zm0,5.6a1.4,1.4,0,1,0,1.4,1.4A1.4,1.4,0,0,0,999.32,366.23Zm1.4,7a1.4,1.4,0,1,0-2.13,1.19h1.47A1.39,1.39,0,0,0,1000.72,373.23Zm-7-23.8a1.4,1.4,0,1,0,1.4,1.4A1.4,1.4,0,0,0,993.72,349.43Zm0,5.6a1.4,1.4,0,1,0,1.4,1.4A1.4,1.4,0,0,0,993.72,355Zm0,5.6a1.4,1.4,0,1,0,1.4,1.4A1.4,1.4,0,0,0,993.72,360.63Zm0,5.6a1.4,1.4,0,1,0,1.4,1.4A1.4,1.4,0,0,0,993.72,366.23Zm1.4,7a1.4,1.4,0,1,0-2.13,1.19h1.47A1.39,1.39,0,0,0,995.12,373.23Zm-7-29.4a1.4,1.4,0,1,0,1.4,1.4A1.4,1.4,0,0,0,988.12,343.83Zm0,5.6a1.4,1.4,0,1,0,1.4,1.4A1.4,1.4,0,0,0,988.12,349.43Zm0,5.6a1.4,1.4,0,1,0,1.4,1.4A1.4,1.4,0,0,0,988.12,355Zm0,5.6a1.4,1.4,0,1,0,1.4,1.4A1.4,1.4,0,0,0,988.12,360.63Zm0,5.6a1.4,1.4,0,1,0,1.4,1.4A1.4,1.4,0,0,0,988.12,366.23Zm1.4,7a1.4,1.4,0,1,0-2.13,1.19h1.47A1.39,1.39,0,0,0,989.52,373.23Zm-7-29.4a1.4,1.4,0,1,0,1.4,1.4A1.4,1.4,0,0,0,982.52,343.83Zm0,5.6a1.4,1.4,0,1,0,1.4,1.4A1.4,1.4,0,0,0,982.52,349.43Zm0,5.6a1.4,1.4,0,1,0,1.4,1.4A1.4,1.4,0,0,0,982.52,355Zm0,5.6a1.4,1.4,0,1,0,1.4,1.4A1.4,1.4,0,0,0,982.52,360.63Zm0,5.6a1.4,1.4,0,1,0,1.4,1.4A1.4,1.4,0,0,0,982.52,366.23Zm1.4,7a1.4,1.4,0,1,0-2.13,1.19h1.47A1.39,1.39,0,0,0,983.92,373.23Zm-7-29.4a1.4,1.4,0,1,0,1.4,1.4A1.4,1.4,0,0,0,976.92,343.83Zm0,5.6a1.4,1.4,0,1,0,1.4,1.4A1.4,1.4,0,0,0,976.92,349.43Zm0,5.6a1.4,1.4,0,1,0,1.4,1.4A1.4,1.4,0,0,0,976.92,355Zm0,5.6a1.4,1.4,0,1,0,1.4,1.4A1.4,1.4,0,0,0,976.92,360.63Zm0,5.6a1.4,1.4,0,1,0,1.4,1.4A1.4,1.4,0,0,0,976.92,366.23Zm1.4,7a1.4,1.4,0,1,0-2.13,1.19h1.47A1.39,1.39,0,0,0,978.32,373.23Zm-7-35a1.4,1.4,0,1,0,1.4,1.4A1.4,1.4,0,0,0,971.32,338.23Zm0,5.6a1.4,1.4,0,1,0,1.4,1.4A1.4,1.4,0,0,0,971.32,343.83Zm0,5.6a1.4,1.4,0,1,0,1.4,1.4A1.4,1.4,0,0,0,971.32,349.43Zm0,5.6a1.4,1.4,0,1,0,1.4,1.4A1.4,1.4,0,0,0,971.32,355Zm0,5.6a1.4,1.4,0,1,0,1.4,1.4A1.4,1.4,0,0,0,971.32,360.63Zm0,5.6a1.4,1.4,0,1,0,1.4,1.4A1.4,1.4,0,0,0,971.32,366.23Zm1.4,7a1.4,1.4,0,1,0-2.13,1.19h1.47A1.39,1.39,0,0,0,972.72,373.23Zm-7-35a1.4,1.4,0,1,0,1.4,1.4A1.4,1.4,0,0,0,965.72,338.23Zm0,5.6a1.4,1.4,0,1,0,1.4,1.4A1.4,1.4,0,0,0,965.72,343.83Zm0,5.6a1.4,1.4,0,1,0,1.4,1.4A1.4,1.4,0,0,0,965.72,349.43Zm0,5.6a1.4,1.4,0,1,0,1.4,1.4A1.4,1.4,0,0,0,965.72,355Zm0,5.6a1.4,1.4,0,1,0,1.4,1.4A1.4,1.4,0,0,0,965.72,360.63Zm0,5.6a1.4,1.4,0,1,0,1.4,1.4A1.4,1.4,0,0,0,965.72,366.23Zm1.4,7a1.4,1.4,0,1,0-2.13,1.19h1.47A1.39,1.39,0,0,0,967.12,373.23Zm-8.4-33.6a1.4,1.4,0,1,0,1.4-1.4A1.4,1.4,0,0,0,958.72,339.63Zm1.4,4.2a1.4,1.4,0,1,0,1.4,1.4A1.4,1.4,0,0,0,960.12,343.83Zm0,5.6a1.4,1.4,0,1,0,1.4,1.4A1.4,1.4,0,0,0,960.12,349.43Zm0,5.6a1.4,1.4,0,1,0,1.4,1.4A1.4,1.4,0,0,0,960.12,355Zm0,5.6a1.4,1.4,0,1,0,1.4,1.4A1.4,1.4,0,0,0,960.12,360.63Zm0,5.6a1.4,1.4,0,1,0,1.4,1.4A1.4,1.4,0,0,0,960.12,366.23Zm1.4,7a1.4,1.4,0,1,0-2.13,1.19h1.47A1.39,1.39,0,0,0,961.52,373.23Zm-7-35a1.4,1.4,0,1,0,1.4,1.4A1.4,1.4,0,0,0,954.52,338.23Zm0,5.6a1.4,1.4,0,1,0,1.4,1.4A1.4,1.4,0,0,0,954.52,343.83Zm0,5.6a1.4,1.4,0,1,0,1.4,1.4A1.4,1.4,0,0,0,954.52,349.43Zm0,5.6a1.4,1.4,0,1,0,1.4,1.4A1.4,1.4,0,0,0,954.52,355Zm0,5.6a1.4,1.4,0,1,0,1.4,1.4A1.4,1.4,0,0,0,954.52,360.63Zm0,5.6a1.4,1.4,0,1,0,1.4,1.4A1.4,1.4,0,0,0,954.52,366.23Zm1.4,7a1.4,1.4,0,1,0-2.13,1.19h1.47A1.39,1.39,0,0,0,955.92,373.23Zm-7-35a1.4,1.4,0,1,0,1.4,1.4A1.4,1.4,0,0,0,948.92,338.23Zm0,5.6a1.4,1.4,0,1,0,1.4,1.4A1.4,1.4,0,0,0,948.92,343.83Zm0,5.6a1.4,1.4,0,1,0,1.4,1.4A1.4,1.4,0,0,0,948.92,349.43Zm0,5.6a1.4,1.4,0,1,0,1.4,1.4A1.4,1.4,0,0,0,948.92,355Zm0,5.6a1.4,1.4,0,1,0,1.4,1.4A1.4,1.4,0,0,0,948.92,360.63Zm0,5.6a1.4,1.4,0,1,0,1.4,1.4A1.4,1.4,0,0,0,948.92,366.23Zm1.4,7a1.4,1.4,0,1,0-2.13,1.19h1.47A1.39,1.39,0,0,0,950.32,373.23Zm-7-35a1.4,1.4,0,1,0,1.4,1.4A1.4,1.4,0,0,0,943.32,338.23Zm0,5.6a1.4,1.4,0,1,0,1.4,1.4A1.4,1.4,0,0,0,943.32,343.83Zm0,5.6a1.4,1.4,0,1,0,1.4,1.4A1.4,1.4,0,0,0,943.32,349.43Zm0,5.6a1.4,1.4,0,1,0,1.4,1.4A1.4,1.4,0,0,0,943.32,355Zm0,5.6a1.4,1.4,0,1,0,1.4,1.4A1.4,1.4,0,0,0,943.32,360.63Zm0,5.6a1.4,1.4,0,1,0,1.4,1.4A1.4,1.4,0,0,0,943.32,366.23Zm1.4,7a1.4,1.4,0,1,0-2.13,1.19h1.47A1.39,1.39,0,0,0,944.72,373.23Zm-7-35a1.4,1.4,0,1,0,1.4,1.4A1.4,1.4,0,0,0,937.72,338.23Zm0,5.6a1.4,1.4,0,1,0,1.4,1.4A1.4,1.4,0,0,0,937.72,343.83Zm0,5.6a1.4,1.4,0,1,0,1.4,1.4A1.4,1.4,0,0,0,937.72,349.43Zm0,5.6a1.4,1.4,0,1,0,1.4,1.4A1.4,1.4,0,0,0,937.72,355Zm0,5.6a1.4,1.4,0,1,0,1.4,1.4A1.4,1.4,0,0,0,937.72,360.63Zm0,5.6a1.4,1.4,0,1,0,1.4,1.4A1.4,1.4,0,0,0,937.72,366.23Zm1.4,7a1.4,1.4,0,1,0-2.13,1.19h1.47A1.39,1.39,0,0,0,939.12,373.23Zm-7-35a1.4,1.4,0,1,0,1.4,1.4A1.4,1.4,0,0,0,932.12,338.23Zm0,5.6a1.4,1.4,0,1,0,1.4,1.4A1.4,1.4,0,0,0,932.12,343.83Zm0,5.6a1.4,1.4,0,1,0,1.4,1.4A1.4,1.4,0,0,0,932.12,349.43Zm0,5.6a1.4,1.4,0,1,0,1.4,1.4A1.4,1.4,0,0,0,932.12,355Zm0,5.6a1.4,1.4,0,1,0,1.4,1.4A1.4,1.4,0,0,0,932.12,360.63Zm0,5.6a1.4,1.4,0,1,0,1.4,1.4A1.4,1.4,0,0,0,932.12,366.23Zm1.4,7a1.4,1.4,0,1,0-2.13,1.19h1.47A1.39,1.39,0,0,0,933.52,373.23Zm-7-35a1.4,1.4,0,1,0,1.4,1.4A1.4,1.4,0,0,0,926.52,338.23Zm0,5.6a1.4,1.4,0,1,0,1.4,1.4A1.4,1.4,0,0,0,926.52,343.83Zm0,5.6a1.4,1.4,0,1,0,1.4,1.4A1.4,1.4,0,0,0,926.52,349.43Zm0,5.6a1.4,1.4,0,1,0,1.4,1.4A1.4,1.4,0,0,0,926.52,355Zm0,5.6a1.4,1.4,0,1,0,1.4,1.4A1.4,1.4,0,0,0,926.52,360.63Zm0,5.6a1.4,1.4,0,1,0,1.4,1.4A1.4,1.4,0,0,0,926.52,366.23Zm1.4,7a1.4,1.4,0,1,0-2.13,1.19h1.47A1.39,1.39,0,0,0,927.92,373.23Zm-7-35a1.4,1.4,0,1,0,1.4,1.4A1.4,1.4,0,0,0,920.92,338.23Zm0,5.6a1.4,1.4,0,1,0,1.4,1.4A1.4,1.4,0,0,0,920.92,343.83Zm0,5.6a1.4,1.4,0,1,0,1.4,1.4A1.4,1.4,0,0,0,920.92,349.43Zm0,5.6a1.4,1.4,0,1,0,1.4,1.4A1.4,1.4,0,0,0,920.92,355Zm0,5.6a1.4,1.4,0,1,0,1.4,1.4A1.4,1.4,0,0,0,920.92,360.63Zm0,5.6a1.4,1.4,0,1,0,1.4,1.4A1.4,1.4,0,0,0,920.92,366.23Zm1.4,7a1.4,1.4,0,1,0-2.13,1.19h1.47A1.39,1.39,0,0,0,922.32,373.23Zm-7-35a1.4,1.4,0,1,0,1.4,1.4A1.4,1.4,0,0,0,915.32,338.23Zm0,5.6a1.4,1.4,0,1,0,1.4,1.4A1.4,1.4,0,0,0,915.32,343.83Zm0,5.6a1.4,1.4,0,1,0,1.4,1.4A1.4,1.4,0,0,0,915.32,349.43Zm0,5.6a1.4,1.4,0,1,0,1.4,1.4A1.4,1.4,0,0,0,915.32,355Zm0,5.6a1.4,1.4,0,1,0,1.4,1.4A1.4,1.4,0,0,0,915.32,360.63Zm0,5.6a1.4,1.4,0,1,0,1.4,1.4A1.4,1.4,0,0,0,915.32,366.23Zm1.4,7a1.4,1.4,0,1,0-2.13,1.19h1.47A1.39,1.39,0,0,0,916.72,373.23Z"/><polygon class="cls-3" points="628.69 116.71 627.19 116.71 627.19 62.42 596.11 62.42 596.11 94.88 594.61 94.88 594.61 60.92 628.69 60.92 628.69 116.71"/><rect class="cls-1" x="648.66" y="270.78" width="263.64" height="103.64" transform="translate(1560.95 645.2) rotate(-180)"/><polygon class="cls-1" points="648.65 179.8 811.54 179.8 811.54 211.93 854.44 211.93 926.3 258.86 926.3 270.78 648.65 270.78 648.65 179.8"/><polyline class="cls-1" points="649.77 131.34 795.25 131.34 839.85 167.89 839.85 179.8 648.65 179.8"/><rect class="cls-1" x="648.66" y="167.89" width="191.19" height="11.92" transform="translate(1488.5 347.69) rotate(-180)"/><line class="cls-1" x1="648.66" y1="258.86" x2="926.3" y2="258.86"/><polygon class="cls-12" points="659.62 374.42 648.65 374.42 648.65 146.35 659.62 153.62 659.62 374.42"/><polyline class="cls-1" points="431.5 374.42 431.5 140.7 540.08 67.2 648.65 140.7 648.65 374.42"/><polygon class="cls-3" points="649.4 374.42 647.9 374.42 647.9 141.1 540.08 68.11 432.25 141.1 432.25 374.42 430.75 374.42 430.75 140.3 540.08 66.3 540.5 66.58 649.4 140.3 649.4 374.42"/><polygon class="cls-4" points="608.74 225.29 599.99 225.29 550.65 142.46 559.4 142.46 608.74 225.29"/><polygon class="cls-4" points="582.74 225.29 563.99 225.29 514.65 142.46 533.4 142.46 582.74 225.29"/><rect class="cls-5" x="702.18" y="179.8" width="88.66" height="45.49" transform="translate(1493.02 405.1) rotate(-180)"/><polygon class="cls-3" points="913.04 374.42 911.54 374.42 911.54 271.53 649.4 271.53 649.4 374.42 647.9 374.42 647.9 270.03 913.04 270.03 913.04 374.42"/><polyline class="cls-8" points="891.66 374.42 891.66 281.79 669.29 281.79 669.29 374.42"/><polygon class="cls-3" points="892.41 374.42 890.91 374.42 890.91 282.54 670.04 282.54 670.04 374.42 668.54 374.42 668.54 281.04 892.41 281.04 892.41 374.42"/><g class="cls-13"><polygon class="cls-3" points="790.84 179.8 702.18 179.8 702.18 209.96 790.84 189.96 790.84 179.8"/></g><g class="cls-14"><polygon class="cls-3" points="585.99 281.75 551.05 281.75 551.05 294.06 585.99 285.89 585.99 281.75"/></g><g class="cls-15"><polygon class="cls-3" points="891.66 280.74 670.18 280.74 670.18 374.42 891.66 313.52 891.66 280.74"/></g><path class="cls-3" d="M927.05,271.53H647.91V179.05H812.29v32.13h42.38l.18.12,72.2,47.16ZM649.41,270H925.55V259.27l-71.33-46.59H810.79V180.55H649.41Z"/><polygon class="cls-3" points="840.6 180.56 648.65 180.56 648.65 179.06 839.1 179.06 839.1 168.24 794.98 132.09 649.77 132.09 649.77 130.59 795.52 130.59 795.73 130.76 840.6 167.53 840.6 180.56"/><path class="cls-3" d="M840.6,180.55H647.91V167.14H840.6Zm-191.19-1.5H839.1V168.64H649.41Z"/><polygon class="cls-3" points="484 374.42 482.5 374.42 482.5 271.53 472.09 271.53 472.09 374.42 470.59 374.42 470.59 270.03 484 270.03 484 374.42"/><polygon class="cls-3" points="609.49 374.42 607.99 374.42 607.99 271.53 597.57 271.53 597.57 374.42 596.07 374.42 596.07 270.03 609.49 270.03 609.49 374.42"/><rect class="cls-3" x="648.66" y="258.11" width="277.64" height="1.5"/><polygon class="cls-1" points="421.39 137.36 540.08 57.84 658.76 137.36 658.76 152.63 540.08 73.11 421.39 152.63 421.39 137.36"/><path class="cls-3" d="M659.51,154,540.08,74,420.64,154V137l.33-.22,119.11-79.8,119.43,80ZM540.08,72.21l117.93,79V137.76l-117.93-79-117.94,79v13.47Z"/><path class="cls-3" d="M609.49,226H562.21V141.71h47.28Zm-45.78-1.5H608V143.21H563.71Z"/><path class="cls-3" d="M563.71,226H516.44V141.71h47.27Zm-45.77-1.5h44.27V143.21H517.94Z"/><path class="cls-3" d="M517.94,226H470.66V141.71h47.28Zm-45.78-1.5h44.28V143.21H472.16Z"/><rect class="cls-3" x="471.41" y="201.8" width="137.33" height="1.5"/><polygon class="cls-3" points="597.57 374.42 596.07 374.42 596.07 271.53 540.83 271.53 540.83 374.42 539.33 374.42 539.33 270.03 597.57 270.03 597.57 374.42"/><polygon class="cls-3" points="540.83 374.42 539.33 374.42 539.33 271.53 484.08 271.53 484.08 374.42 482.58 374.42 482.58 270.03 540.83 270.03 540.83 374.42"/><path class="cls-3" d="M586.6,317.35H550.3V281h36.3Zm-34.8-1.5h33.3V282.54H551.8Z"/><rect class="cls-2" x="494.3" y="281.79" width="34.81" height="34.81" transform="translate(1023.41 598.39) rotate(-180)"/><path class="cls-3" d="M529.86,317.35H493.55V281h36.31Zm-34.81-1.5h33.31V282.54H495.05Z"/><rect class="cls-3" x="528.36" y="327.72" width="1.5" height="19.6"/><rect class="cls-3" x="550.3" y="327.72" width="1.5" height="19.6"/><polygon class="cls-3" points="753.71 233.9 693.65 233.9 693.65 204.44 695.15 204.44 695.15 232.4 753.71 232.4 753.71 233.9"/><g class="cls-13"><polygon class="cls-3" points="529.18 281.75 494.23 281.75 494.23 294.06 529.18 285.89 529.18 281.75"/></g><g class="cls-14"><polygon class="cls-3" points="608.74 142.46 471.46 142.46 471.46 178.22 608.74 154.51 608.74 142.46"/></g><path class="cls-10" d="M353.92,311.19c0-20.38,9.47-39.79,23.85-73.79,14.38,34,23.85,53.41,23.85,73.79s-10.68,36.91-23.85,36.91S353.92,331.57,353.92,311.19Z"/><path class="cls-3" d="M377.77,348.85c-13.56,0-24.6-16.9-24.6-37.66,0-18.12,7.57-35.81,19-62.59,1.56-3.64,3.2-7.46,4.9-11.49l.69-1.63.69,1.63c1.71,4,3.34,7.85,4.9,11.5,11.44,26.77,19,44.46,19,62.58C402.37,332,391.33,348.85,377.77,348.85Zm0-109.52q-2.19,5.14-4.21,9.86c-11.37,26.61-18.89,44.18-18.89,62,0,19.94,10.37,36.16,23.1,36.16s23.1-16.22,23.1-36.16c0-17.81-7.52-35.39-18.89-62Q380,244.48,377.77,239.33Z"/><rect class="cls-3" x="375.16" y="319.75" width="17.96" height="1.5" transform="translate(-114.12 365.5) rotate(-45)"/><rect class="cls-3" x="371.73" y="302.02" width="1.5" height="15.03" transform="translate(-109.78 354.02) rotate(-45)"/><rect class="cls-3" x="377.02" y="287.9" width="1.5" height="86.52"/><path class="cls-10" d="M386.59,300.6c0-23.53,11-45.94,27.78-85.19,16.75,39.25,27.78,61.66,27.78,85.19s-12.44,42.61-27.78,42.61S386.59,324.13,386.59,300.6Z"/><path class="cls-3" d="M414.37,344c-15.73,0-28.53-19.45-28.53-43.36,0-20.9,8.81-41.31,22.14-72.21,1.81-4.21,3.72-8.62,5.7-13.27l.69-1.62.69,1.62c2,4.65,3.89,9.06,5.7,13.27,13.33,30.9,22.14,51.31,22.14,72.21C442.9,324.51,430.1,344,414.37,344Zm0-126.64q-2.61,6.09-5,11.67c-13.25,30.72-22,51-22,71.61,0,23.08,12.13,41.86,27,41.86s27-18.78,27-41.86c0-20.59-8.76-40.89-22-71.62Q417,223.4,414.37,217.32Z"/><rect class="cls-3" x="410.36" y="321.68" width="24.41" height="1.5" transform="translate(-104.22 393.24) rotate(-45)"/><rect class="cls-3" x="405.84" y="296.2" width="1.5" height="22.11" transform="translate(-98.18 377.49) rotate(-45)"/><rect class="cls-3" x="413.42" y="287.9" width="1.5" height="86.52"/><path class="cls-10" d="M114.23,270.44c0-17.71,8.22-34.57,20.71-64.1,12.49,29.53,20.72,46.39,20.72,64.1s-9.28,32.06-20.72,32.06S114.23,288.15,114.23,270.44Z"/><path class="cls-3" d="M134.94,303.25c-11.83,0-21.46-14.72-21.46-32.81,0-15.76,6.57-31.13,16.52-54.4,1.35-3.17,2.77-6.49,4.25-10l.69-1.64.69,1.64c1.48,3.5,2.91,6.82,4.26,10,10,23.27,16.52,38.64,16.52,54.4C156.41,288.53,146.78,303.25,134.94,303.25Zm0-95c-1.23,2.91-2.42,5.69-3.56,8.37C121.5,239.73,115,255,115,270.44c0,17.27,9,31.31,20,31.31s20-14,20-31.31c0-15.45-6.53-30.71-16.4-53.81Z"/><rect class="cls-3" x="132.51" y="272.02" width="16.62" height="1.5" transform="translate(-151.63 179.47) rotate(-45)"/><rect class="cls-3" x="129.28" y="255.67" width="1.5" height="13.9" transform="translate(-147.62 168.86) rotate(-45)"/><rect class="cls-3" x="134.19" y="254.26" width="1.5" height="70.85"/><path class="cls-10" d="M1089.32,323.54c0-16.48,8.22-32.17,20.71-59.65,12.49,27.48,20.72,43.17,20.72,59.65s-9.28,29.84-20.72,29.84S1089.32,340,1089.32,323.54Z"/><path class="cls-3" d="M1110,354.13c-11.83,0-21.46-13.72-21.46-30.59,0-14.69,6.57-29,16.52-50.66,1.36-2.95,2.78-6,4.26-9.3l.68-1.5.69,1.5c1.48,3.26,2.9,6.35,4.25,9.3,10,21.66,16.53,36,16.53,50.66C1131.5,340.41,1121.87,354.13,1110,354.13Zm0-88.43c-1.23,2.72-2.43,5.31-3.57,7.81-9.87,21.48-16.39,35.67-16.39,50,0,16,9,29.09,20,29.09s20-13.05,20-29.09c0-14.36-6.52-28.55-16.39-50C1112.46,271,1111.27,268.42,1110,265.7Z"/><rect class="cls-3" x="1107.88" y="324.96" width="16.06" height="1.5" transform="translate(77.12 847.49) rotate(-42.94)"/><rect class="cls-3" x="1104.37" y="309.55" width="1.5" height="13.43" transform="translate(120.74 909.83) rotate(-47.06)"/><rect class="cls-3" x="1109.28" y="308.49" width="1.5" height="65.35"/></svg>