<svg xmlns="http://www.w3.org/2000/svg" width="66" height="65" viewBox="0 0 66 65">
    <g fill="none" fill-rule="nonzero">
        <path fill="#15326F" d="M57.912 46.5L22.968 23.484l2.832-4.296c9.762 5.464 17.05 9.782 21.864 12.952s10.61 7.469 17.388 12.896l-7.14 1.464z"/>
        <path fill="#15326F" d="M65.052 45.036l-.6-2.904-22.704-14.328 1.092-3.564-14.208-9.36-2.832 4.308z"/>
        <path fill="#15326F" d="M63.576 37.896l1.236 5.976-7.2-4.74z"/>
        <path fill="#15326F" d="M58.392 34.488l1.236 5.964-7.2-4.74z"/>
        <path fill="#15326F" d="M53.208 31.068l1.236 5.976-7.2-4.74z"/>
        <path fill="#15326F" d="M48.024 27.66l1.236 5.964-7.2-4.74z"/>
        <path fill="#15326F" d="M42.84 24.24l1.236 5.976-7.2-4.74z"/>
        <path fill="#15326F" d="M37.656 20.832l1.236 5.964-7.2-4.74z"/>
        <path fill="#15326F" d="M13.272 10.92A14.712 14.712 0 1 0 33.6 6.732c-6.774-4.436-15.859-2.564-20.328 4.188zm10.392 6.852a3.744 3.744 0 1 1-6.256-4.115 3.744 3.744 0 0 1 6.256 4.115z"/>
        <path fill="#15326F" d="M25.548 19.02l-13.632-5.532A14.712 14.712 0 0 0 29.724 33.12l-4.176-14.1z"/>
        <path fill="#2474DE" d="M37.452 63.624L13.98 28.98l4.26-2.892 14.796 20.328 11.58 18.588z"/>
        <path fill="#2474DE" d="M44.616 65.004l.552-2.916-15.492-21.924 2.376-2.88L22.5 23.208l-4.26 2.88z"/>
        <path fill="#2474DE" d="M45.984 57.84l-1.152 5.988-4.824-7.128z"/>
        <path fill="#2474DE" d="M42.504 52.704l-1.152 5.988-4.836-7.14z"/>
        <path fill="#2474DE" d="M39.024 47.568l-1.152 5.988-4.836-7.14z"/>
        <path fill="#2474DE" d="M35.532 42.432l-1.14 5.976-4.836-7.128z"/>
        <path fill="#2474DE" d="M32.052 37.284L30.9 43.272l-4.824-7.128z"/>
        <path fill="#2474DE" d="M28.572 32.148l-1.152 5.988-4.836-7.128z"/>
        <path fill="#2474DE" d="M9.9 13.8a14.7 14.7 0 1 0 20.4 3.912C25.743 11.005 16.615 9.254 9.9 13.8zm6.984 10.296a3.744 3.744 0 1 1-4.192-6.205 3.744 3.744 0 0 1 4.192 6.205z"/>
        <path fill="#76C5F7" d="M11.622 32.083l14.352-9.732 1.158 1.709L12.78 33.79zM15.87 35.141l11.372-7.71 1.158 1.708-11.372 7.71z"/>
        <path fill="#15326F" d="M4.596 20.28c.644.435 1.327.808 2.04 1.116 1.322.566 2.73.907 4.164 1.008 1.41.105 2.826-.033 4.188-.408 1.38-.36-.648.696.996.3-2.784 1.932-.144.42-.144.42-.768 1.56 1.404.828-.192 1.38a12.372 12.372 0 0 1-9.876-.816 10.8 10.8 0 0 1-1.74-1.2 12.9 12.9 0 0 1 .564-1.8z" opacity=".5"/>
        <path fill="#FF9A65" d="M11.412 22.8a11.004 11.004 0 0 1-2.172-.24A11.376 11.376 0 0 1 5.004 1.968a11.352 11.352 0 0 1 15.792 3.036 10.932 10.932 0 0 1 1.752 4.188l-2.4.456a8.796 8.796 0 0 0-1.38-3.3A8.988 8.988 0 0 0 6.3 3.948a8.988 8.988 0 0 0-2.4 12.468 8.952 8.952 0 0 0 12.468 2.4 9.06 9.06 0 0 0 1.968-1.8l1.86 1.5a11.532 11.532 0 0 1-2.472 2.292 11.376 11.376 0 0 1-6.312 1.992z"/>
        <path fill="#15326F" d="M20.4 10.944l13.2-4.212a14.7 14.7 0 0 0-16.344.108l3.144 4.104z"/>
        <path fill="#2474DE" d="M16.884 24.096c2.82.54 6.096-3.684 3.792-7.092-2.1-3.096-7.38-2.28-7.992.888a3.746 3.746 0 0 1 4.2 6.204z"/>
    </g>
</svg>
