<svg id="Layer_1" data-name="Layer 1" xmlns="http://www.w3.org/2000/svg" viewBox="0 0 60 60"><defs><style>.cls-1{fill:#15326f;}.cls-2{fill:#2474de;}.cls-3{fill:#fff;}.cls-4{fill:#76c5f7;}.cls-5{fill:#ff9a65;}</style></defs><title>millions-of-travlers</title><circle class="cls-1" cx="30" cy="30" r="30"/><path class="cls-2" d="M16.15,54,8.26,45.54v-3.7H12L23.08,30.72V28l5-4.66H21.53l-5-5.62H10.17L5.79,12.28A30,30,0,0,0,26.56,59.8l-5-5.77Z"/><path class="cls-2" d="M24.51,3.11h10.4L37.07.84A30.54,30.54,0,0,0,30,0,29.82,29.82,0,0,0,12.45,5.68l8.72.89Z"/><path class="cls-2" d="M46,4.65l-4.54-.23-6.34,6.34v4.42l4.9-.24,11,10.64v6L58.91,38A30.4,30.4,0,0,0,60,30,30,30,0,0,0,46,4.65Z"/><polygon class="cls-2" points="37.84 36.94 34.08 32.51 28.7 32.51 22.72 41.36 29.84 48.77 36.71 48.77 41.25 53.19 46.15 53.19 46.15 43.03 52.96 42.91 46.98 36.94 37.84 36.94"/><circle class="cls-3" cx="8.56" cy="8.93" r="4.51"/><circle class="cls-3" cx="52.29" cy="15.46" r="4.51"/><circle class="cls-1" cx="22.44" cy="40.22" r="4.51"/><path class="cls-4" d="M8.9,0A8.91,8.91,0,0,0,0,8.9c0,4.92,3.54,9.6,8.9,17.8,5.37-8.2,8.91-12.88,8.91-17.8A8.91,8.91,0,0,0,8.9,0Zm0,12.42A3.52,3.52,0,1,1,12.42,8.9,3.52,3.52,0,0,1,8.9,12.42Z"/><path class="cls-3" d="M22.44,32.51a7.71,7.71,0,0,0-7.7,7.71c0,4.26,3.06,8.31,7.7,15.41,4.65-7.1,7.71-11.15,7.71-15.41A7.71,7.71,0,0,0,22.44,32.51Zm0,10.76a3.05,3.05,0,1,1,3-3.05A3,3,0,0,1,22.44,43.27Z"/><path class="cls-5" d="M52.29,7.75a7.71,7.71,0,0,0-7.71,7.71c0,4.25,3.06,8.31,7.71,15.41C56.94,23.77,60,19.71,60,15.46A7.71,7.71,0,0,0,52.29,7.75Zm0,10.75a3,3,0,1,1,3.05-3A3,3,0,0,1,52.29,18.5Z"/></svg>