<svg xmlns="http://www.w3.org/2000/svg" width="50" height="58" viewBox="0 0 50 58">
    <g fill="none" fill-rule="nonzero">
        <path fill="#15326F" d="M49.666 24.48V4.94c-4.25 0-8.49-.42-12.658-1.254A63.778 63.778 0 0 1 24.84 0a64.238 64.238 0 0 1-12.182 3.686A64.382 64.382 0 0 1 0 4.94v19.642c0 2.345.261 4.682.778 6.97a32.688 32.688 0 0 0 2.29 6.71 34.315 34.315 0 0 0 3.714 6.177 36.893 36.893 0 0 0 4.997 5.415 40.19 40.19 0 0 0 6.106 4.45A41.63 41.63 0 0 0 24.84 57.6a42.74 42.74 0 0 0 6.955-3.298 40.795 40.795 0 0 0 6.091-4.45 36.893 36.893 0 0 0 4.997-5.414 34.315 34.315 0 0 0 3.715-6.177 32.688 32.688 0 0 0 2.362-6.71c.516-2.288.778-4.625.778-6.97l-.072-.101z"/>
        <path fill="#2474DE" d="M44.64 23.443V9.763a52.517 52.517 0 0 1-5.429-.288l5.429 13.968z"/>
        <path fill="#76C5F7" d="M12.557 9.216a51.84 51.84 0 0 1-5.17.49L23.501 51.25l1.339.532a36.446 36.446 0 0 0 3.672-1.627L12.557 9.216z"/>
        <path fill="#318EEE" d="M22.262 6.811a57.181 57.181 0 0 1-4.795 1.44l15.279 39.341a31.133 31.133 0 0 0 2.505-2.002c.533-.475 1.037-.964 1.527-1.44L22.262 6.811zM33.595 8.64a52.474 52.474 0 0 1-6.048-1.714L40.32 39.73a28.886 28.886 0 0 0 1.886-3.384 24.94 24.94 0 0 0 1.11-2.88L33.595 8.64z"/>
        <path fill="#76C5F7" d="M5.026 17.28v8.165c0 1.869.202 3.733.604 5.558a26.438 26.438 0 0 0 1.83 5.357c.815 1.74 1.81 3.39 2.966 4.925a28.973 28.973 0 0 0 3.988 4.32c.735.648 1.44 1.253 2.276 1.829L5.026 17.28z"/>
    </g>
</svg>
